<?xml version="1.0" encoding="UTF-8" standalone="no"?>
<svg
   xmlns:dc="http://purl.org/dc/elements/1.1/"
   xmlns:cc="http://creativecommons.org/ns#"
   xmlns:rdf="http://www.w3.org/1999/02/22-rdf-syntax-ns#"
   xmlns:svg="http://www.w3.org/2000/svg"
   xmlns="http://www.w3.org/2000/svg"
   viewBox="0 0 258.66666 258.66666"
   height="258.66666"
   width="258.66666"
   xml:space="preserve"
   id="svg2"
   version="1.1"><metadata
     id="metadata8"><rdf:RDF><cc:Work
         rdf:about=""><dc:format>image/svg+xml</dc:format><dc:type
           rdf:resource="http://purl.org/dc/dcmitype/StillImage" /></cc:Work></rdf:RDF></metadata><defs
     id="defs6" /><g
     transform="matrix(1.3333333,0,0,-1.3333333,0,258.66667)"
     id="g10"><g
       transform="scale(0.1)"
       id="g12"><path
         id="path14"
         style="fill:#ffffff;fill-opacity:1;fill-rule:evenodd;stroke:none"
         d="M 6.21875,1933.78 H 1933.78 V 6.21875 H 6.21875 V 1933.78" /><path
         id="path16"
         style="fill:#231f20;fill-opacity:1;fill-rule:evenodd;stroke:none"
         d="m 811.582,95.082 c 0,6.246 1.496,8.246 5,13.246 5.496,3.496 10.992,6.996 16.492,10.492 2.75,1.5 5.496,3 8.496,4.5 2.5,2 5,4 7.5,5.996 1.496,3.504 3.246,7 4.996,10.25 2.5,3.497 5,6.997 7.497,10.247 8.75,10.496 19.746,20.242 24.992,32.988 1.75,7.996 3.75,15.996 5.75,23.992 2.25,2 4.5,4 6.746,5.996 0,7.25 -2.5,17.246 -7.246,22.996 -0.5,1.246 -1,2.496 -1.5,3.746 -4.75,9.496 -9.246,18.996 -13.746,28.242 -29.489,56.981 -54.981,123.457 -44.235,188.934 1,5.5 2,10.996 3.25,16.246 5.996,19.992 13.742,39.488 22.492,58.231 3.497,6.75 7.247,13.496 10.997,20.246 -2.25,10.746 -4.247,21.242 -6.25,31.738 -1.747,5.996 -3.497,11.996 -5.247,17.742 -5.75,5.5 -11.246,10.996 -16.742,16.246 -6.25,7.496 -12.246,14.992 -18.246,22.492 -4.746,7.247 -9.5,14.493 -13.996,21.493 -2.5,4.496 -4.75,8.996 -6.996,13.246 -3,6.496 -6,12.992 -8.75,19.492 -8.246,14.746 -11.996,36.238 -15.992,52.23 -1.75,10.5 -3.5,20.996 -5,31.243 -0.996,10.246 -1.75,20.492 -2.496,30.738 0,17.246 0,34.488 0,51.484 2.246,35.239 9.496,69.477 16.992,103.965 -8.496,-0.75 -16.992,-5 -25.242,-5 -11.996,-3.496 -23.743,-7 -35.489,-10.746 0.25,-8.246 0.5,-16.496 1,-24.988 -2.496,-5.5 -6.746,-10 -10.496,-14.746 -6.746,-1 -5.496,0 -7.496,-5 -1,-0.5 -1.75,-1.25 -2.5,-2 -3.25,-0.75 -8.746,-3 -12.246,-2.246 -1.5,0.746 -5.75,4.496 -7.496,3.746 -3.25,-3 -8.75,-5.75 -13.246,-5.75 -2,1.25 -4,2.5 -6,3.75 -1,-1.5 -1.996,-2.996 -3,-4.496 -5.246,-3.25 -11.746,-3 -17.742,-3.25 -1.25,1 -2.5,2 -3.5,2.75 -3.496,0 -6.746,-1 -9.992,-2 -4.25,0.25 -8.5,0.5 -12.5,0.75 -2.247,2.75 -2,7.246 -6.247,7.246 -8.496,-5 -16.996,-9.996 -25.242,-14.993 0,-0.503 0,-1.003 0.25,-1.5 19.992,-29.242 39.989,-58.48 60.227,-87.722 0.754,-1.5 1.5,-3 2.254,-4.746 0,-9.5 -7,-14.246 -15.496,-17.746 -2.5,0 -4.746,0 -6.996,0.75 -8.25,8.246 -14.747,18.496 -21.247,28.238 -1.996,1.25 -3.746,3.25 -5.996,1.004 0,-0.25 0,-0.504 0,-1.004 2.75,-3.996 8.246,-10.496 4.996,-15.492 -3,-2.5 -5.996,-5.25 -8.992,-7.996 -6,-3.25 -11,-5.75 -17.246,-2.75 -6,7.996 -12.496,16.496 -17.746,24.988 -0.996,0 -3,3.504 -3.25,4 -2.996,0 -3.496,-1 -3.496,-4 4,-6.746 7.246,-9.742 3,-16.992 -5.5,-4 -11.5,-8.496 -18.246,-9.496 -6.75,3.25 -10.246,8.75 -14.242,15.246 -3,0 -8.5,13.742 -12.25,15.492 -0.996,-0.25 -1.75,-0.746 -2.496,-1.25 0,-6.246 6.996,-10.496 4.746,-17.492 -3.75,-2.75 -7.496,-5.75 -10.996,-8.746 -2.5,-1.5 -5,-2.75 -7.996,-3.25 -9.747,5.496 -13.997,14.246 -19.747,23.492 -0.996,1.25 -1.996,2.25 -2.746,3.246 -7.75,0 -12.746,-7.242 -19.492,-9.992 -2.004,0 -4,0 -6,0 -3.5,3.496 -10.746,11.242 -5.996,15.992 3.996,3.25 7.996,6.25 11.996,9.246 1.746,1.75 3.746,3.25 5.746,4.75 -5.496,8.996 -12.496,17.992 -16.996,27.742 -0.25,1.746 -0.496,3.496 -0.746,5.246 3.996,8 8.492,9.5 16.492,13.996 1.25,0 2.5,0 3.996,0 5.004,-2.5 5.004,-8 11.5,-9.246 0.746,1.496 1,2.996 0.746,4.75 -4.746,6.992 -9.496,13.992 -14.242,20.989 -2,5.5 -6,11.746 -1.75,17.496 4.75,4.5 9.746,8.5 16.996,8.5 2.996,-2.004 9.496,-12.75 13.246,-9 -0.25,0.75 -0.25,1.5 -0.25,2.25 -7.25,8.996 -13.746,20.742 -18.496,31.238 1.25,10.25 9.25,13.496 18.243,17.492 1.25,0 2.75,0 4.25,-0.25 2,-1.996 7.746,-8.746 11.246,-8.746 1.75,1.754 0.5,4.25 -0.75,6.246 -5.996,8.75 -11.746,17.246 -17.493,25.742 0,2.5 -0.75,4 0.5,6.5 1.747,2.25 3.497,4.5 5.5,6.5 1.497,1.25 3.247,2.5 4.997,3.746 4,1.75 5.75,2.5 10.246,2.5 1.75,-1.5 3.5,-3 5.246,-4.5 20.496,-29.238 40.988,-58.476 61.48,-87.718 0.75,0 1.5,0 2.5,0 10.496,6.246 21.242,12.496 31.988,18.746 -0.25,5.246 -0.5,10.496 -0.5,15.492 10.497,16.496 21.243,33.488 30.493,50.73 0,1.25 0,2.254 0,3.254 -11.246,26.239 -23.493,51.979 -31.743,79.219 -1.25,5.75 -2.246,11.5 -3.246,17.25 -0.75,6.24 -1.25,12.24 -1.75,18.24 0,17.99 1,35.24 4.996,52.98 -0.746,5.5 -1.5,11 -1.996,16.25 0,5.99 -0.754,12.99 0.746,18.99 2,3.75 4,7.5 6,11.25 1.25,4.99 2.5,9.99 3.75,14.74 2.75,26.49 -2,53.48 4,79.73 1.247,3.49 2.747,6.99 4.247,10.24 0.5,16.75 1.5,32.24 5.746,48.49 3.5,10.49 8.25,20.74 13.496,30.48 5.5,7.75 11.246,15.5 17.496,22.5 -0.25,2.5 -0.5,5 -0.5,7.5 0.5,10.74 1.5,20.99 4.246,31.48 2,5.5 4.25,11 6.5,16.5 2.25,4 4.746,7.74 7.246,11.49 6.496,9.5 14.496,16 23.496,22.75 16.242,10.25 31.234,15.49 49.981,18.74 8.496,0 17.246,0 25.992,0 5.246,-1 10.496,-2.25 15.742,-3.5 4.75,6.75 9.746,13.25 14.746,19.74 5.75,8.75 16.996,15.75 25.492,21.5 4.5,2.25 8.996,4.5 13.746,6.75 10.496,3.75 20.993,7.49 31.489,10.99 7.75,14.74 6.25,34.49 6.996,50.49 1.25,7.49 2.254,14.99 6,21.49 0,0.75 0,1.49 0.25,2 -1.25,4.24 -2.5,8.49 -3.75,12.74 -13.246,5.75 -18.742,16 -22.492,29.24 0,7.25 -1.997,21.75 3.75,27.49 1.496,0.51 5.496,2.5 5.996,3.75 -0.746,6.25 -1.5,12.5 -2.246,18.75 0,7.99 0,15.74 0,23.49 1.746,17.49 5.746,34.48 15.992,48.98 8.496,10.25 15.996,16.25 27.742,22.99 5.246,2.26 10.746,4.5 16.242,6.75 5.75,1.25 11.496,2.5 17.496,3.75 7.746,0 15.492,0 23.492,0 22.243,-3.75 38.733,-10.25 55.983,-25.74 2.5,-3.25 5.25,-6.5 8,-9.75 1.74,-3.25 3.49,-6.5 5.49,-9.75 1.5,-5.74 3.25,-11.49 5,-17.49 0.5,-4.74 1,-9.74 1.75,-14.74 0,-12.75 0,-25.5 0.25,-38.24 0.25,-1.75 0.75,-3.5 1.25,-5.5 3,0 5.5,-2.75 7.25,-4.75 4.25,-12.74 1,-27.24 -4.75,-38.98 -4,-5.5 -8,-11.25 -11.75,-17 -1,-5 -2,-10 -2.75,-15 7.5,-18.74 5.5,-39.48 8.25,-59.23 1.5,-4.24 3,-8.74 4.5,-13.24 1.75,-0.75 3.5,-1.75 5.5,-2.75 7.75,-2 15.74,-4.24 23.74,-6.5 24.24,-9.99 41.24,-28.24 57.73,-47.98 17.24,4 35.24,3.75 52.73,1.75 9.5,-2.5 19.25,-5.75 28.25,-9.75 5.74,-3.74 11.49,-7.49 17.24,-11.24 4,-3.75 8.25,-7.75 12.49,-11.75 2.5,-3.25 5,-6.75 7.75,-10.25 1.5,-2.49 3,-5.24 4.75,-7.99 4.5,-11 7.5,-22.49 10,-33.99 0.75,-8 1.5,-16 2.25,-23.99 8.74,-9.75 15.74,-20.5 22.24,-31.74 3.25,-9 6.5,-18 9.99,-26.99 1.75,-10.25 3.5,-20.75 5.5,-31.24 0,-9 3,-17.5 5.25,-26.24 1,-7.25 2,-14.75 3,-22.25 -0.25,-15.24 -0.5,-30.74 -0.5,-46.23 3.5,-13.75 10,-26.99 13,-40.74 0,-3.75 0,-7.5 0,-11.5 -0.75,-3.24 -1.5,-6.74 -2,-10.24 2.5,-9.5 4.75,-19.24 6.24,-28.99 0,-10.25 0,-20.5 0,-30.99 -1.74,-15.5 -5.49,-31.24 -9.99,-46.24 -9,-21.74 -18.75,-42.98 -25.49,-65.473 0,-6.75 4.24,-13.496 6.99,-19.492 4.5,-7.5 9,-14.996 13.75,-22.496 3,-2.996 5.25,-8.746 7.25,-12.242 0.25,-4.5 0.5,-9.246 1,-13.996 0.5,-0.25 29.48,-19.246 31.49,-18.242 20.49,28.988 40.98,57.976 61.48,86.968 1.5,1 3,1.75 4.5,2.5 6.99,0 13.49,-4.75 17.74,-10.246 0,-2 0,-4 0.25,-6 -0.5,-1.25 -1,-2.5 -1.5,-4 -6.25,-9.246 -12.5,-18.742 -18.49,-28.238 0,-2.5 3.49,-2.5 4.99,-1.5 3.25,4.25 5.25,7.746 10,9.996 3,0 6,0.25 8.75,-1 3.99,-3.246 7.99,-6.5 12.24,-9.746 -0.25,-3 -0.5,-6 -0.5,-9.246 -6.5,-9.496 -12.99,-18.992 -19.24,-28.742 0,-9.246 10.75,6.5 12.25,7.5 1.99,0.246 4.24,0.246 6.49,0.246 7.5,-2.496 12,-6.246 17.5,-11.742 -0.25,-2.25 -0.25,-4.5 -0.25,-7 -7.25,-10.496 -14.5,-21.243 -21.75,-31.989 0.5,-2.25 0.75,-3.75 3.5,-3.75 2.75,3.25 5.5,6.5 8.25,9.5 8.5,5.746 18,-3.5 23.74,-9.246 0,-2.254 0,-4.75 0.26,-7.25 -6,-8.746 -11.75,-17.496 -17.5,-26.492 1.25,-0.996 2.5,-2.246 3.75,-3.496 6,-4 12.49,-8.246 17.49,-13.25 -0.25,-2.246 -0.25,-4.496 -0.25,-6.746 -2,-2.25 -4,-4.496 -6,-6.996 -8.74,0 -18.49,8.496 -25.24,13.496 -3.5,0 -15.99,-21.992 -16.24,-22.242 -2.5,-2.25 -5,-4.75 -7.5,-7.246 -9.25,1.25 -14.74,5.996 -20.99,12.992 0,4.746 4,9.746 2.5,14.246 -2.25,0 -2.75,-0.5 -4.75,-1.75 -5.75,-7.75 -11.25,-15.496 -16.75,-23.492 -1,-0.5 -1.75,-1 -2.49,-1.75 -2.01,0 -4,0 -5.75,-0.246 -5.75,3.746 -11.5,7.246 -17.25,10.742 -2,4 1.25,8.75 3,12.246 0,1.5 0,2.75 0.25,4 -1,1 -1,1.25 -2.5,1.25 -7.25,-9.496 -14.25,-18.992 -21.24,-28.742 -2,0 -3.75,0 -5.5,0 -6.25,2 -13.5,6.25 -17.24,11.746 0,5 1.5,7.996 3.25,12.246 0,1 0,1.75 0,2.5 -1.01,0.5 -2,0.75 -3,1 -6,-8.246 -16.75,-20.492 -21.5,-29.988 -4,0 -7,-0.25 -10.74,1.25 -3.75,2.496 -7.5,4.996 -11,7.496 -0.5,1 -1,2 -1.25,3 0,1.996 0,3.746 0,5.496 16.24,32.738 44.49,59.73 60.73,92.219 -0.5,0.5 -0.75,1 -1,1.5 -8,4 -15.74,10.996 -24.24,13.746 -1,-2 -4.5,-9.496 -6,-10.246 -4.75,0.75 -9.5,1.25 -14.24,1.746 -1.5,0.504 -3,1 -4.5,1.25 -1.75,-1.25 -3.5,-2.496 -5,-3.746 -2.5,0 -5,0 -7.25,0 -3.5,0.996 -6.75,2 -9.99,3 -0.75,1.25 -1.5,2.246 -2,3.246 -3.75,0 -7,-1.996 -10.5,-1.996 -4,1.746 -7.75,3.496 -11.5,4.996 -2.25,-3.25 -4,-2.75 -7.5,-3.25 -4.24,1.25 -8.24,2.25 -12.24,3.25 -0.75,1.75 -1.5,3.5 -2,5.246 -4.75,0 -6.25,-0.496 -9.49,2.75 -2.5,3.75 -4.75,7.25 -7,10.746 0,8.5 0.5,16.996 1.75,25.242 -18.25,7.996 -39.74,11.746 -58.99,16.746 -0.75,0 -1.5,0 -2,0 1,-10 4.75,-20.746 7.25,-30.488 1.5,-11.25 3.25,-22.496 5,-33.738 4.25,-40.489 5.5,-81.477 2.5,-122.211 -2.25,-13.497 -4.5,-27.243 -6.75,-40.989 -4.25,-19.742 -11.49,-39.234 -19.49,-57.73 -2.5,-4.996 -5,-9.996 -7.5,-14.992 -11.74,-18.996 -25.49,-36.739 -40.24,-53.485 -3.75,-3.246 -7.24,-6.5 -10.74,-9.996 -6.5,-16.246 -8.5,-35.488 -10.75,-52.734 3.25,-5.996 6.5,-11.996 10,-18.242 7.49,-15.743 13.74,-32.239 19.24,-48.735 1.5,-6.996 3.25,-13.992 5,-21.242 1.25,-9.746 2.5,-19.492 3.75,-29.238 0,-13.496 0,-27.242 -1.75,-40.489 -2,-9.246 -4,-18.492 -5.75,-27.738 -9.75,-30.988 -21.74,-61.23 -34.98,-90.972 -5.75,-11.747 -11.5,-23.743 -17.25,-35.739 -2.5,-5.496 -9.25,-15.242 -8.5,-21.492 3,-2.75 6.25,-5.746 9.5,-8.746 1.5,-11.996 4.25,-22.492 10.5,-32.988 10.24,-10.746 19.99,-21.492 28.49,-33.239 2.49,-4.75 4.74,-9.75 8.49,-13.496 11.5,-5.25 24.24,-8.746 31.24,-19.492 0.5,-3.5 1.25,-6.9999 2,-10.4999 -4.75,0.25 -9.24,0.25 -13.74,0.25 -0.75,2.0039 -1.25,4 -1.75,5.9999 -1.25,1.75 -2.25,3.246 -3.25,4.746 -1.75,1.25 -3.5,2.5 -5.25,3.504 -7,3.246 -13.75,6.496 -20.49,9.496 -3.75,7.496 -7.5,14.992 -11.25,22.242 -14.74,10.497 -28.99,21.743 -44.98,30.239 0,7.5 0,15.246 2.5,22.492 1.74,1.25 5.49,3.5 7.74,3.5 -2.25,6.746 -8.74,11.996 -13.49,16.746 0,6.246 1.75,12.492 3.25,18.742 1.5,12.746 3.24,25.492 4.99,38.235 1,21.996 2.25,47.234 -2.49,68.73 -0.26,0.25 -0.51,0.25 -0.76,0.25 -2.75,-18.496 -5.49,-36.992 -7.99,-55.734 -7.25,-34.239 -14.5,-68.727 -21.74,-103.215 -0.5,-4.746 -1,-9.746 -1.25,-14.746 0,-7.746 -1,-16.992 2.5,-23.992 5.25,-8.497 11.99,-15.493 21.99,-17.993 -0.5,5 -1,9.746 -1.5,14.496 -1,3.247 -2,6.247 -3,9.247 2.75,2.25 4.5,3 8.24,3 2.26,-9.25 12.5,-16.243 16.5,-24.493 -3,-1.75 -6.25,-2.75 -7.25,-6.25 1.75,-3.75 5.5,-7.746 9,-9.742 2.25,0.246 4.5,0.496 7,0.746 -2,-5.246 -4,-10.746 -6,-16.2459 -24.74,0 -49.48,0 -74.227,-0.25 0,2.5039 0,4.9999 0,7.2499 2,6 4,11.996 6.25,17.996 -1.5,8.492 -3.5,17.242 -4.5,25.989 0,13.746 0.75,27.242 2.5,40.988 2.25,11.496 4.5,22.992 6.747,34.488 0,22.238 -3.747,45.484 -6.247,67.727 -4.25,33.238 -8.246,66.476 -12.246,99.464 0,1.25 0,2.5 0,3.5 -0.25,0 -0.5,0 -0.75,0 -3.25,-54.484 -7.496,-109.464 -11.746,-163.695 0,-12.246 0,-24.492 1.75,-36.488 1.25,-5.496 2.5,-10.996 3.746,-16.746 0,-10.742 0,-21.988 -0.746,-32.735 -1.25,-7.5 -2.5,-14.996 -3.5,-22.742 3,-8.25 6,-16.996 7.5,-25.492 -25.996,0.25 -51.984,0.4961 -77.976,0.4961 -0.5,3 -0.75,5.7499 -0.996,8.4999 -1.25,2.496 -2.504,4.75 -3.754,6.996 1.5,-0.25 3,-0.5 4.5,-0.996 4.996,0 11.996,9.246 13.746,12.742 -2.5,1.5 -4.75,2.75 -7,4 0,0.75 0,1.5 0.254,2 5.496,7.746 10.996,15.493 16.492,22.993 1.75,-0.75 5.746,-1.75 7.246,-3.25 -1.25,-4.25 -2.496,-8.5 -3.746,-12.993 -0.5,-3.754 -1,-7.5 -1.5,-11.5 7.746,0 18.492,11.246 22.742,16.496 7.5,22.743 -1.25,48.235 -4,70.977 -3,6.746 -5.246,15.492 -6.746,22.992 -3.5,15.492 -7,30.738 -10.496,45.985 -3.25,19.992 -6.246,39.984 -9.246,59.98 -0.25,0 -0.504,0 -0.75,0 -3.5,-18.246 -2.5,-37.988 -2.5,-56.484 1,-14.243 2.746,-28.489 5,-42.485 1.746,-8.246 3.496,-16.492 5.496,-24.742 -3.25,-3.25 -11.746,-11.246 -11.746,-15.742 0.25,0 0.5,0 1,-0.25 -0.25,-0.75 -1.75,-2.5 -1,-3.25 2.25,-0.75 4.75,-1.75 6.496,-3.5 0.5,-7.746 1.004,-15.492 1.5,-23.242 -8.496,-1.25 -17.992,-9.246 -24.738,-14.246 -6.5,-5.496 -13,-11.246 -19.496,-16.993 -0.497,-1 -1,-2.25 -1.5,-3.5 -4.247,-5.996 -8.497,-12.246 -12.493,-18.492 -5,-2 -9.5,-4.5 -14,-7.496 -3.496,-1.75 -6.746,-3.504 -9.996,-5.25 0,-3.5 -2,-6.2499 -3.996,-9.2499 -4.5,0 -9,-0.2461 -13.246,-0.4961 z m -91.719,877.203 c -4,4 -7.996,7.996 -11.996,11.996 -3,6 -5.246,10.996 -10.246,14.746 -1.75,0.25 -4.5,0.25 -5.75,1.503 -1.25,15.74 -2,31.74 -2,47.73 3.25,5.25 6.496,10.49 10,15.74 13.742,27.75 18.492,59.23 13.742,89.97 -2.5,8 -4.746,16 -6.996,23.99 -3.25,5.75 -6.496,11.25 -9.746,16.75 0,5.25 10.746,16.25 13.996,20.49 12.492,4.5 25.242,10.5 36.985,16.5 2.25,1.5 9.75,8.25 12.5,7 12.242,-23.25 28.488,-44.49 48.73,-61.49 2,-4.74 3.996,-9.74 6.25,-14.74 4.246,-13.75 8.746,-27.74 13.246,-41.74 1.746,-10.24 3.496,-20.49 5.496,-30.73 0,-2.5 0,-5.25 0.25,-8 -6.996,-10 -8.746,-23.49 -11.746,-35.24 -5,-7 -9.746,-14.24 -14.496,-21.49 -4.996,-10.75 -9.996,-21.5 -14.996,-32.489 -0.25,-0.25 -0.25,-0.754 -0.25,-1.25 -9.996,-2.75 -19.992,-5.5 -29.988,-8.5 -14.496,-3.5 -28.743,-6.996 -42.985,-10.746 z m 500.587,0 c -10.75,3.25 -21.5,6.246 -32.24,9.246 -9.25,2.5 -18.5,4.75 -27.5,7 -3.75,1 -7.49,1.996 -11.24,3 -2.5,4.746 -5,11.239 -6.75,16.489 -3.75,7.25 -7.5,14.25 -10.99,21.25 -4,6.25 -8,12.24 -12,18.24 -5.5,12.5 -5.75,26.74 -14.5,37.74 3.25,32.98 12.25,63.98 25.74,93.96 12.25,13 24.24,26.5 34.99,40.99 4.25,7.5 8.75,14.75 13.25,22 5,-3.5 9.99,-7 15.24,-10.5 10.25,-5.5 22.75,-11 34.49,-13.25 3.5,-4 13.5,-15.24 12.25,-20.99 -6,-11 -10.5,-23.25 -14.5,-35.24 -1.25,-6 -2.24,-12 -3.25,-17.99 -0.24,-4.5 -0.49,-9 -0.49,-13.5 0.49,-13.49 1.74,-25.24 6.24,-37.98 3.75,-7.5 7.5,-15 11.25,-22.5 3.24,-5.25 6.5,-10.74 9.74,-16.24 3,-15.5 1.75,-31.99 -0.5,-47.49 -0.75,-1.5 -1.5,-2.99 -2,-4.74 -1.99,-0.76 -4,-1.5 -5.74,-2.253 -6.75,-8.75 -15.25,-16.246 -19.24,-26.742 -0.75,0 -1.5,-0.25 -2.25,-0.5 z M 971.777,466.707 c -9.996,29.488 -13.996,62.727 -9.746,93.719 5.746,19.242 7.746,41.234 8.746,61.226 0,8.246 0,16.496 0,24.493 -1.246,17.496 -4.246,34.988 -10.746,51.234 0,7.746 5.746,17.742 8.25,24.988 0.496,2.75 0.996,5.5 1.746,8.25 0.25,4.25 0.5,8.246 1,12.246 0.25,0 0.5,0 0.75,0 1.75,-15.996 6,-30.738 11.496,-45.484 -2.25,-8.5 -4.496,-16.996 -6.746,-25.492 -1.5,-11.996 -3,-23.992 -4.5,-36.239 0,-9.246 0,-18.492 0,-27.742 1.25,-22.492 5.25,-44.234 11.246,-65.976 -0.25,-15.992 -0.25,-32.489 -2.5,-48.231 -1.25,-4.75 -2.246,-9.5 -3.246,-14.496 -1.75,-4 -3.25,-8.25 -4.75,-12.496 -0.5,0 -0.75,0 -1,0 z M 835.324,95.082 c -0.25,0.4961 -0.5,0.7461 -0.5,0.9961 2.25,7.7499 2.75,7.9999 9.746,11.9959 0.75,0.254 1.5,0.254 2.25,0.254 -0.25,-4.25 -0.25,-8.7499 -0.25,-13.246 -3.75,0 -7.496,0 -11.246,0 z m 21.992,0 c 0,3 0.25,5.996 0.5,8.746 4.25,3.5 9.247,5.746 14.243,7.746 1.004,-1.496 2.004,-2.996 3,-4.746 -0.5,-3.75 -0.996,-7.496 -1.5,-11.2499 -5.496,0 -10.996,-0.2461 -16.243,-0.4961 z m 214.924,0.4961 c -0.74,4.9999 -1.99,11.4999 1.25,15.7499 4.25,0 12,-3.75 15.25,-7 0.25,-2.75 0.5,-5.4999 1,-8.4999 -6,0 -11.75,0 -17.5,-0.25 z m 29.49,0 c -1,4.4999 -1.75,8.7499 -2.5,12.9999 5,0 11,-4.5 12.5,-9.246 0,-1.0039 0,-2.2539 0,-3.5039 -3.5,0 -6.75,0 -10,-0.25" /><path
         id="path18"
         style="fill:#231f20;fill-opacity:1;fill-rule:evenodd;stroke:none"
         d="m 1191.02,136.355 h -1.72 v -8.566 h 2.39 c 1.69,0 3,0.367 3.87,1.106 0.88,0.746 1.32,1.82 1.32,3.246 0,1.453 -0.47,2.515 -1.41,3.195 -0.94,0.684 -2.42,1.019 -4.45,1.019 z m 1.73,7.055 c 5.13,0 9.05,-0.906 11.75,-2.711 2.71,-1.804 4.06,-4.437 4.06,-7.89 0,-2.321 -0.63,-4.305 -1.9,-6.004 -1.28,-1.68 -3.07,-2.922 -5.38,-3.727 l 7.9,-15.742 h -12.39 l -6.38,13.836 h -1.11 v -13.836 h -11.36 v 36.074 z m 26.16,-18.785 c 0,3.547 -0.66,6.926 -2,10.148 -1.33,3.231 -3.22,6.079 -5.71,8.567 -2.57,2.57 -5.45,4.512 -8.64,5.832 -3.16,1.316 -6.56,1.969 -10.16,1.969 -3.65,0 -7.05,-0.637 -10.22,-1.922 -3.16,-1.293 -5.97,-3.199 -8.42,-5.699 -2.55,-2.579 -4.5,-5.485 -5.85,-8.747 -1.36,-3.253 -2.04,-6.632 -2.04,-10.148 0,-3.531 0.66,-6.895 2.01,-10.094 1.35,-3.211 3.28,-6.074 5.79,-8.586 2.54,-2.547 5.41,-4.488 8.61,-5.836 3.19,-1.3473 6.56,-2.0152 10.12,-2.0152 3.51,0 6.89,0.6796 10.12,2.0432 3.24,1.351 6.17,3.32 8.77,5.898 2.5,2.449 4.41,5.254 5.7,8.406 1.29,3.153 1.92,6.532 1.92,10.184 z m -26.6,33.348 c 4.57,0 8.9,-0.832 12.97,-2.485 4.06,-1.652 7.68,-4.074 10.85,-7.242 3.07,-3.105 5.43,-6.695 7.12,-10.773 1.66,-4.09 2.5,-8.379 2.5,-12.879 0,-4.559 -0.82,-8.817 -2.46,-12.801 -1.65,-3.988 -4.03,-7.504 -7.16,-10.547 -3.29,-3.1952 -6.99,-5.6522 -11.09,-7.3944 -4.11,-1.7266 -8.37,-2.5899 -12.73,-2.5899 -4.41,0 -8.61,0.8477 -12.61,2.5313 -3.99,1.6797 -7.59,4.1328 -10.82,7.363 -3.2,3.164 -5.64,6.77 -7.32,10.789 -1.68,4.028 -2.53,8.239 -2.53,12.649 0,4.469 0.85,8.742 2.55,12.836 1.71,4.074 4.16,7.738 7.39,11 3.05,3.101 6.56,5.468 10.57,7.101 3.98,1.621 8.23,2.442 12.77,2.442" /><path
         id="path20"
         style="fill:#fff200;fill-opacity:1;fill-rule:evenodd;stroke:none"
         d="m 890.055,95.5781 c -0.5,3 -0.75,5.7499 -0.996,8.4999 -1.25,2.496 -2.504,4.75 -3.754,6.996 1.5,-0.25 3,-0.5 4.5,-0.996 4.996,0 11.996,9.246 13.746,12.742 -2.5,1.5 -4.75,2.75 -7,4 0,0.75 0,1.5 0.254,2 5.496,7.746 10.996,15.493 16.492,22.993 1.75,-0.75 5.746,-1.75 7.246,-3.25 -1.25,-4.25 -2.496,-8.5 -3.746,-12.993 -0.5,-3.754 -1,-7.5 -1.5,-11.5 7.746,0 18.492,11.246 22.742,16.496 7.5,22.743 -1.25,48.235 -4,70.977 -3,6.746 -5.246,15.492 -6.746,22.992 -3.5,15.492 -7,30.738 -10.496,45.985 -3.25,19.992 -6.246,39.984 -9.246,59.98 -0.25,0 -0.504,0 -0.75,0 -3.5,-18.246 -2.5,-37.988 -2.5,-56.484 1,-14.243 2.746,-28.489 5,-42.485 1.746,-8.246 3.496,-16.492 5.496,-24.742 -3.25,-3.25 -11.746,-11.246 -11.746,-15.742 0.25,0 0.5,0 1,-0.25 -0.25,-0.75 -1.75,-2.5 -1,-3.25 2.25,-0.75 4.75,-1.75 6.496,-3.5 0.5,-7.746 1.004,-15.492 1.5,-23.242 -8.496,-1.25 -17.992,-9.246 -24.738,-14.246 -6.5,-5.496 -13,-11.246 -19.496,-16.993 -0.497,-1 -1,-2.25 -1.5,-3.5 -4.247,-5.996 -8.497,-12.246 -12.493,-18.492 -5,-2 -9.5,-4.5 -14,-7.496 -3.496,-1.75 -6.746,-3.504 -9.996,-5.25 0,-3.5 -2,-6.2499 -3.996,-9.2499 h 10.211 c -0.125,0.2071 -0.215,0.3516 -0.215,0.5 2.25,7.7499 2.75,7.9999 9.746,11.9959 0.75,0.254 1.5,0.254 2.25,0.254 -0.242,-4.094 -0.25,-8.4178 -0.25,-12.7499 h 10.75 c 0.028,2.8321 0.262,5.6519 0.496,8.2499 4.25,3.5 9.247,5.746 14.243,7.746 1.004,-1.496 2.004,-2.996 3,-4.746 -0.5,-3.75 -0.996,-7.496 -1.5,-11.2499 z m 182.185,0 c -0.74,4.9999 -1.99,11.4999 1.25,15.7499 4.25,0 12,-3.75 15.25,-7 0.25,-2.75 0.5,-5.4999 1,-8.4999 -6,0 -11.75,0 -17.5,-0.25 z m 29.49,0 c -1,4.4999 -1.75,8.7499 -2.5,12.9999 5,0 11,-4.5 12.5,-9.246 0,-1.0039 0,-2.2539 0,-3.5039 -3.5,0 -6.75,0 -10,-0.25 z m -48.91,-0.1914 h 69.68 v 0.4414 c -0.09,0 -0.18,0 -0.27,0 -0.75,2.0039 -1.25,4 -1.75,5.9999 -1.25,1.75 -2.25,3.246 -3.25,4.746 -1.75,1.25 -3.5,2.5 -5.25,3.504 -7,3.246 -13.75,6.496 -20.49,9.496 -3.75,7.496 -7.5,14.992 -11.25,22.242 -14.74,10.497 -28.99,21.743 -44.98,30.239 0,7.5 0,15.246 2.5,22.492 1.74,1.25 5.49,3.5 7.74,3.5 -2.25,6.746 -8.74,11.996 -13.49,16.746 0,6.246 1.75,12.492 3.25,18.742 1.5,12.746 3.24,25.492 4.99,38.235 1,21.996 2.25,47.234 -2.49,68.73 -0.26,0.25 -0.51,0.25 -0.76,0.25 -2.75,-18.496 -5.49,-36.992 -7.99,-55.734 -7.25,-34.239 -14.5,-68.727 -21.74,-103.215 -0.5,-4.746 -1,-9.746 -1.25,-14.746 0,-7.746 -1,-16.992 2.5,-23.992 5.25,-8.497 11.99,-15.493 21.99,-17.993 -0.5,5 -1,9.746 -1.5,14.496 -1,3.247 -2,6.247 -3,9.247 2.75,2.25 4.5,3 8.24,3 2.26,-9.25 12.5,-16.243 16.5,-24.493 -3,-1.75 -6.25,-2.75 -7.25,-6.25 1.75,-3.75 5.5,-7.746 9,-9.742 2.25,0.246 4.5,0.496 7,0.746 -2,-5.246 -4,-10.746 -6,-16.2459 -0.29,0 -0.58,0 -0.87,0 z M 940.289,112.074 c -3.25,1.5 -8,3.75 -10.5,6.25 5.004,6.246 10.25,12.492 15.5,18.742 1.746,3.75 3.746,7.497 5.746,10.997 0.25,0.25 0.5,0.25 0.75,0.25 -0.25,-4.997 -0.5,-9.997 -0.75,-14.997 -2.5,-7.496 -5.746,-15.242 -10.746,-21.242 z m 66.481,0.5 c 0,0.25 0,0.5 0,0.75 -0.25,0 -0.5,0 -0.75,0 -6.75,10.996 -14.25,23.992 -11,37.489 0.25,0 0.5,0 1,0 2.75,-10.997 11.25,-20.493 18.49,-28.739 0.76,-0.754 1.75,-1.5 2.75,-2.254 0,-0.496 0,-1 0,-1.496 -3.49,-1.75 -7,-3.75 -10.49,-5.75 z m -50.735,63.231 c -3.25,3.75 -6.25,7.496 -9.246,10.996 0,6.996 1.496,14.496 2.246,21.492 0.25,0 0.75,0 1.25,0 1.25,-3.75 2.5,-7.496 3.746,-11.496 0.754,-4.25 1.5,-8.5 2.5,-12.746 0,-2.75 0,-5.496 0.25,-8.246 -0.25,0 -0.5,0 -0.746,0 z m 33.738,0.496 c -0.25,0.754 -0.5,1.5 -0.5,2.254 0.997,9.246 2.497,19.242 6.747,27.738 0.25,0 0.5,0 0.75,0 0.5,-8.746 4.5,-26.242 -6.997,-29.992 z m 57.977,70.73 c 7.5,43.735 15.25,87.469 22.99,131.207 1,12.992 2.01,25.739 3.25,38.485 0,14.996 -0.25,30.238 -1.5,44.984 -2.24,10.496 -4.49,20.992 -6.49,31.488 -0.25,0 -0.5,0 -0.75,0 -0.25,-7.996 -0.25,-16.242 -0.25,-24.492 -1.75,-28.488 -4.5,-59.23 -12.5,-86.719 -2.5,-5.246 -5,-10.496 -7.5,-15.742 -0.5,-0.254 -1,-0.504 -1.5,-0.754 -0.5,41.239 -10.99,81.227 -19.49,121.211 -7.75,32.239 -18.24,64.481 -20.24,97.715 0,10.496 0.25,21.242 1.5,31.738 2.5,2.504 4.99,5.004 7.49,7.25 10.25,8.5 20.5,17.746 31.24,25.743 8.25,4.746 16.25,12.496 23.5,3.246 1.25,-2.996 2.5,-6.246 3.75,-9.496 0.74,-4.747 1.5,-9.497 2.49,-14.243 0,-3.5 0,-7 0.25,-10.746 -2.49,-41.738 -15.74,-82.226 -31.24,-120.711 0.25,0 0.5,0 0.75,0 10,8.996 21.75,19.743 27.75,31.739 6.74,-6.75 11.99,-17.993 16.24,-26.493 7,-17.492 11.99,-35.734 14.99,-54.48 0.5,-5.996 1,-11.992 1.5,-17.992 -0.25,-8.996 -0.25,-18.242 -0.25,-27.492 -1.25,-9.747 -2.5,-19.493 -3.75,-29.489 -6.5,-26.742 -17.24,-52.484 -27.49,-77.972 -2.49,-5.25 -4.99,-10.746 -7.49,-16.246 -5.5,-10.497 -11,-20.993 -16.5,-31.739 -0.25,0 -0.5,0 -0.75,0 z M 1039,518.688 c -12.99,27.992 -29.48,58.73 -20.74,90.718 4.75,0 7.75,-2.5 11.75,-4.996 6.5,-1.75 14.24,-2 20.49,0.5 3,1.996 6,4 9.25,5.996 1.75,1.75 3.5,3.25 5.5,4.75 -1,-16.746 -6.75,-34.242 -11.25,-50.234 -5,-15.492 -10,-30.992 -15,-46.734 z m 5,60.48 c -1.75,1.25 -3.25,2.5 -4.74,3.746 0,8 1.99,9.5 9.24,9.5 5,-3.25 5,-9.75 0,-12.996 -1.5,0 -3,0 -4.5,-0.25 z M 894.305,253.027 c -4,8.5 -7.996,16.993 -11.996,25.243 -3.5,7.246 -7,14.492 -10.496,21.742 -2.5,5.75 -4.75,11.496 -6.997,16.992 -2.003,2 -4.25,9.496 -5,12.496 -3.5,10.496 -6.996,20.746 -10.5,30.992 -4.246,17.746 -7.746,35.735 -8.996,53.981 0,9.996 0,19.996 0.254,29.742 1.996,10.246 3.996,20.492 6.246,30.488 4.5,12.496 8.996,24.992 13.496,37.488 3.997,8.247 7.997,16.493 12.247,24.493 0.25,0 0.5,0 0.996,0 0,-1.5 0,-3.25 0,-5 3,-12.246 14,-22.493 22.742,-30.743 0.754,-1.246 1.75,-2.496 3,-2.996 -12.992,30.239 -20.492,62.981 -27.488,94.969 -1.25,14.242 -9.25,55.231 7.996,63.727 3.5,0 7.496,0.25 10.746,-1 7.75,-4.5 15.996,-9.996 22.742,-16.243 1.75,-1.25 3.5,-2.75 5.5,-4.25 6.246,-5.5 12.492,-11.246 18.992,-16.992 6.996,-34.488 -2.996,-72.726 -10.496,-106.215 -5.75,-23.246 -11.246,-46.484 -16.742,-69.976 -1.75,-8.996 -3.504,-18.246 -5,-27.492 -1,-7.246 -1.75,-14.496 -2.5,-21.993 -0.25,-10.996 -0.5,-21.992 -0.75,-32.988 -0.5,0 -1,0 -1.25,0 -6.746,13.746 -11.496,27.992 -14.992,42.985 -1.5,8.246 -3,16.492 -4.25,24.742 -1.25,11.496 -2.5,22.992 -3.75,34.488 0,10.246 0,20.492 0,30.492 -1.25,-3 -2.246,-6 -3.25,-9.246 -5.746,-24.996 -4.246,-52.734 -2.996,-78.226 4.246,-40.739 13.492,-80.973 22.242,-120.711 0.5,-10.243 0.996,-20.493 1.5,-30.989 -0.504,0 -1,0 -1.25,0 z m 9.746,263.161 c -1.75,6.5 -3.5,12.996 -5,19.492 -2.246,5 -3.496,11.5 -5.996,16.246 -3.996,13.246 -7.996,26.492 -11.996,39.738 -0.75,3.75 -1.25,7.496 -1.75,11.246 0,4.75 0,9.246 0,13.746 3.75,-3 7.496,-6.246 11.246,-9.5 6.996,-3.496 15.996,-7.996 23.742,-3.496 2.75,1.746 7.996,6.75 11.246,6.75 8.246,-23.246 -4.496,-47.988 -11.496,-69.48 -3,-6.996 -5.75,-13.992 -8.496,-20.992 -0.5,-1.25 -1,-2.5 -1.5,-3.75 z m -8.746,61.98 c -1.754,1.25 -3.5,2.5 -5,3.5 0,8.246 1,9.996 8.996,9.996 1,-1 2,-2 3,-3.25 1.75,-7 -0.5,-8.5 -6.996,-10.246 z m 45.734,-322.641 c -2.5,9.246 -5,18.493 -7.25,27.493 -1.25,5.246 -2.5,10.496 -3.496,15.742 -1.75,10.746 -3.5,21.242 -5,31.738 -1,8.75 -1.75,17.496 -2.5,26.242 -1.496,33.238 -1,66.977 2.5,100.215 1.75,12.746 2.75,27.742 6.75,39.988 0.496,0.25 1,0.5 1.496,0.75 5.25,5.746 12,12.746 15.746,19.743 0.25,0 0.5,0 1,0 6.246,-28.239 12.496,-58.481 6.746,-87.469 -2.496,-10.496 -6.496,-24.242 -14.242,-31.989 -1.75,8.993 -3.5,17.743 -5,26.489 -0.25,2 -0.5,4 -0.75,6 -1.5,-12.496 -3,-25.242 -4.25,-37.989 0,-20.496 0,-40.984 0,-61.73 1.25,-16.992 2.75,-33.988 4.25,-51.234 1.5,-7.996 3,-15.993 4.746,-23.989 -0.246,0 -0.496,0 -0.746,0 z m 68.731,21.993 c 1.25,21.242 2.99,42.734 3.49,64.226 -0.25,12.996 -0.5,25.992 -0.74,38.988 -1.5,15.493 -2.75,30.993 -4,46.235 -0.25,0 -0.5,0 -0.75,0 -2,-9.496 -4,-19.242 -6,-28.989 -5.25,2.497 -9.247,15.743 -11.5,20.743 -2.247,8.246 -3.747,16.742 -4.997,24.992 0,7.496 0,14.996 0,22.492 1.75,16.746 5.247,32.988 9.997,49.231 0.25,0 0.75,0 1.25,-0.247 5.5,-6.5 11,-13 16.49,-19.496 1.25,-8.246 2.5,-16.492 4,-24.992 3.75,-32.238 5.5,-64.726 5.5,-96.965 -1,-13.496 -1.75,-26.992 -2.5,-40.488 -2,-18.492 -5.5,-36.988 -9.49,-55.23 -0.26,0 -0.5,-0.25 -0.75,-0.5 z m -61.985,307.894 c 0.5,5.5 1.25,10.996 2,16.246 0,7.496 0.25,14.746 0.5,21.992 -0.5,6.246 -1,12.246 -1.25,18.243 -1,5.5 -2,10.746 -3,15.996 0.25,0 0.5,0 0.754,0 3.246,-6.75 6.496,-13.746 9.742,-20.743 1.25,-5.246 2.5,-10.746 3.75,-16.246 0,-12.496 -3.5,-26.488 -12.496,-35.488 z m 47.485,0 c -5.997,9 -11.747,19.746 -11.747,30.992 3.5,15.742 8.247,30.489 15.747,44.735 0.5,0.25 1,0.5 1.75,0.75 -3.25,-13.246 -5,-27.243 -6.75,-40.735 0,-11.75 -1,-24.242 1.75,-35.742 -0.25,0 -0.5,0 -0.75,0 z m -150.95,41.488 c -5.996,7.246 -11.996,14.496 -17.996,21.493 -14.242,19.746 -24.488,41.984 -32.734,64.726 -1.5,5.5 -3,10.746 -4.25,15.996 0.25,0 0.5,0 0.996,0 0,-0.5 0,-1 0.254,-1.5 8.746,-15.492 17.992,-31.988 28.742,-45.984 9.246,-1.25 17.742,-1.25 23.488,-8.996 3,-8.996 3.75,-17.246 -1.25,-25.492 1.25,-6.497 2.5,-12.997 3.75,-19.743 -0.5,0 -0.75,-0.25 -1,-0.5 z m 252.41,1.75 c 2,5.996 4,11.996 6,17.743 -0.5,0.5 -1,1 -1.25,1.5 -2.5,7.246 -3.25,12.496 -2.25,19.992 2.25,7 3.75,8.25 10,11.996 2,0.75 4,1.25 6.25,1.75 2.5,0.25 5,0.25 7.75,0.25 2.25,3 4.75,5.746 7.25,8.496 7.99,12.746 15.99,25.492 23.99,38.238 0.49,0.25 0.99,0.5 1.5,0.5 -5.01,-14.246 -10,-28.738 -15.75,-42.484 -3.75,-6.496 -7.5,-13.246 -10.99,-19.992 -4.75,-6.5 -9.5,-13 -14,-19.746 -3.75,-4 -7.5,-8.247 -11.25,-12.497 -2.5,-1.75 -4.75,-4.5 -7.25,-5.746 z m -169.937,14.993 c -9.246,9.25 -20.242,16.496 -31.488,23.742 0,4.5 2.496,9.246 3.746,13.496 0.25,0.25 0.754,0.25 1.25,0.25 0,-2.496 9.746,-12.246 11.5,-14.492 5.246,-7.5 10.492,-14.996 15.992,-22.496 -0.5,0 -0.75,-0.247 -1,-0.5 z m 96.717,8 c 6.25,9.996 12.75,19.992 19.24,29.738 0.5,0 1,0 1.5,0 1.75,-4.5 3.5,-9.246 5.5,-13.996 -4,-2.246 -8,-4.496 -11.99,-6.746 -4.76,-3 -9.5,-5.996 -14.25,-8.996 z m -90.721,6.496 c -6.746,10.746 -13.496,21.492 -19.992,32.238 0,12.246 0,24.242 0,36.238 6,-5.996 10.746,-13.996 14.996,-21.492 1.5,-4.746 3.246,-9.496 4.996,-14.242 0.504,-4.5 1.25,-9 2.004,-13.746 -0.504,-6.25 -1.004,-12.5 -1.254,-18.996 -0.246,0 -0.496,0 -0.75,0 z m 78.231,3.5 c 0.25,10.996 0.49,21.992 1,32.738 3.74,7.25 7.74,14.246 11.74,21.242 2.25,3.5 4.75,6.746 7.25,10 0.25,0 0.5,0 0.75,0 0.25,-11.25 0.5,-22.496 0.75,-33.992 -6.75,-9.746 -13.5,-19.742 -20.24,-29.738 -0.51,0 -1,0 -1.25,-0.25 z m 47.48,15.746 c -7.25,31.484 -14.5,63.226 -18.25,95.465 -0.5,7.246 -0.99,14.246 -1.25,21.246 0,12.992 0.26,25.988 1.25,38.984 1.25,8.496 2.75,16.742 4.25,24.992 0.25,0 0.5,0 1,0 6.5,-10.496 11.5,-23.492 17,-34.488 5.75,-14.996 11.75,-30.242 14.49,-46.234 0,-1 0,-2 0,-3.25 -6.5,-31.989 -11.99,-64.727 -17.74,-96.715 -0.25,0 -0.5,0 -0.75,0 z m -174.195,1.746 c -2.246,11.496 -4.496,22.992 -6.496,34.492 -3.25,18.992 -6.496,37.984 -9.496,56.977 0.75,13.996 4.996,26.992 8.75,40.488 3.496,8.746 6.992,17.492 10.746,26.242 2.746,5.996 6.496,15.242 10.992,19.742 1.25,-5.75 2.5,-11.746 3.75,-17.742 0.75,-10.496 1.5,-21.246 2.5,-31.992 -0.5,-22.488 -3,-45.235 -6.25,-67.477 -4.496,-20.242 -8.996,-40.488 -13.496,-60.73 -0.496,0 -0.746,0 -1,0 z m -19.992,11.996 c 0,10.996 -3.497,23.492 -5.497,34.238 -9.25,34.988 -23.742,68.977 -37.238,102.469 -2.5,8.246 -4.75,16.492 -7,24.488 0,-4 0,-8.246 0,-12.492 2.75,-14.996 6.75,-29.742 11.25,-44.234 0.496,-3.25 0.996,-6.5 1.746,-10 0,-3.25 0,-6.746 0,-10.246 -1.25,-8.997 -3.996,-23.243 -9.742,-30.493 0,-0.246 0,-0.746 0,-1.25 -0.754,0 -1.25,-0.246 -1.754,-0.496 -3.246,4.25 -6.496,8.496 -9.746,12.742 -4,7.25 -8.996,14.747 -12.246,22.247 -2.25,5.746 -4.246,11.246 -6.246,16.742 -2.25,9.496 -4.25,18.746 -6.246,27.992 -4.25,27.988 -3.254,56.98 1.246,84.973 2.5,11.996 5,23.988 7.496,35.734 3.254,7.25 19.246,31.992 28.492,19.496 0.25,-2 0.75,-4 1.25,-6.25 0.75,-10.746 1.5,-21.738 2.5,-32.738 0,-10.996 1,-22.242 2,-32.988 5.5,-39.739 18.992,-77.973 30.488,-116.211 6.497,-26.239 13.247,-56.481 10.247,-83.723 -0.497,0 -0.75,0 -1,0 z m 215.927,6.75 c 0,7.746 0,15.492 0,23.242 5,52.481 25.99,101.465 36.24,152.945 1,7.75 2.25,15.497 3.5,23.247 1.5,21.742 0.25,44.73 4.5,66.226 2,3.5 6.74,2.25 10.24,2 9.5,-5.25 14.25,-12.5 17.74,-22.742 2.75,-15.746 5.5,-31.492 8.25,-47.234 0.5,-6.5 1,-13.247 1.75,-19.997 0,-9.246 0,-18.742 0,-28.238 -1.25,-16.992 -4,-34.238 -8.5,-50.484 -3,-7.996 -5.99,-15.992 -8.99,-23.992 -2.75,-4.747 -5.5,-9.497 -8,-14.247 -2.75,-4.246 -7,-9.746 -9.24,-14.242 -5.25,0 -9.25,22.742 -10,26.239 -0.25,4.75 -0.5,9.246 -0.75,13.746 1.5,16.496 6.5,32.742 10.5,48.734 0.5,7.246 1.25,14.246 1.99,21.242 -1.49,-3.746 -2.99,-7.496 -4.24,-11.496 -7.5,-19.992 -15,-40.238 -22.5,-60.48 -1,-2.746 -2,-5.746 -2.75,-8.746 -3.25,-9.747 -6.5,-19.493 -9.74,-29.489 -3.75,-15.246 -6.75,-30.742 -9.25,-46.234 -0.25,0 -0.5,0 -0.75,0 z m -262.408,2 c -3.75,5.246 -7.5,10.492 -11,15.742 -1.25,4 -2.496,7.25 -2.496,11.5 0.996,2.996 2.246,5.992 3.496,8.992 0.25,-0.25 0.75,-0.5 1.25,-0.996 2.75,-11.75 5.75,-23.496 8.75,-35.238 z m 307.398,0.5 c 2,11.746 5.74,23.742 8.99,35.234 0.25,0 0.5,0 1,0 2,-5.246 3.25,-9.992 3.25,-15.742 -0.75,-1.5 -1.5,-3 -2,-4.5 -2.5,-3.5 -7.74,-13.246 -11.24,-14.992 z m -129.21,16.242 c -9.747,26.242 -18.493,57.231 -12.497,85.473 5.247,17.492 14.497,32.738 23.497,48.484 5.74,7.496 11.49,14.992 17.24,22.242 0.25,0 0.5,0 1,-0.254 1,-4.996 2,-9.992 3.25,-14.992 0.5,-4.496 1,-8.996 1.75,-13.496 0,-8.746 0,-17.492 0.25,-26.242 -0.5,-4.996 -1,-9.996 -1.5,-14.996 -4.75,-24.738 -12.25,-47.731 -23.49,-70.473 -3.25,-5.246 -6.5,-10.496 -9.5,-15.746 z m -49.231,2 c -19.496,27.488 -30.242,58.981 -33.242,92.469 -0.25,6.746 -0.5,13.496 -0.5,20.242 0.25,13.246 2.25,26.492 4.746,39.488 0.504,0 1.004,0 1.5,0 5.5,-6.75 11,-13.496 16.746,-20.242 3.75,-5.75 7.75,-11.5 11.746,-17.496 6.5,-13.246 11.496,-25.488 13.746,-40.234 0,-5.5 0,-10.996 0,-16.746 -2.75,-19.493 -6.996,-39.239 -14.742,-57.481 z m 136.701,79.473 c -4.5,13.996 -10.74,27.992 -15.74,41.738 -0.5,4.496 -3.5,10.246 -5,14.492 -7,25.992 -13,50.235 -8.25,77.223 2.25,10 6,18.996 10,28.242 3.25,4 6.49,7.746 9.99,11.496 3.5,2.25 7.25,4.496 11,6.75 6.75,1.25 11.99,1 16.74,-3.75 0.75,-2 1.75,-4 2.75,-6.25 1,-6.496 2,-13.242 3.25,-19.992 1,-22.492 1,-46.484 -2.5,-68.727 -5,-26.992 -11,-54.98 -20.99,-80.722 -0.5,0 -1,-0.25 -1.25,-0.5 z m -224.174,0.5 c -14.996,36.238 -24.242,73.476 -26.492,112.961 0,18.996 -2.5,43.738 6.25,61.48 6.996,6.996 10.746,4.5 19.992,3.5 7.25,-3.5 14.243,-9.246 18.993,-15.996 2.25,-4.246 4.5,-8.496 6.75,-12.996 2.75,-8.496 4.996,-17.742 5.746,-26.742 0,-10.496 -0.25,-21.742 -1.496,-32.238 -3.504,-15.997 -7.25,-32.239 -11.75,-47.735 -5.746,-13.746 -11.496,-27.738 -16.993,-41.734 -0.5,0 -0.75,-0.25 -1,-0.5 z M 479.191,811.59 c -0.996,0.75 -1.746,1.25 -2.496,1.746 -0.254,1.5 -0.5,2.75 -0.5,4 3.996,6.75 11.246,-2.996 2.996,-5.746 z m 979.669,6.496 c -1.25,0.75 -2.49,1.25 -3.74,1.75 0,5.25 0,5.746 5.24,5.746 3.5,-1.746 2,-6.996 -1.5,-7.496 z m -973.169,4.75 c -4.75,0.5 -9.496,1 -14.246,1.25 -5.5,8.246 -10.746,16.492 -15.992,24.492 0,6.246 2.246,9.246 8.992,8.246 0.504,-0.25 1,-0.5 1.5,-1 6.75,-9.496 17.496,-21.742 20.996,-32.738 -0.5,0 -1,0 -1.25,-0.25 z m 27.493,5.246 c -1.754,1.25 -3.5,2.5 -5.25,3.5 0,5 1.996,8 7.496,7.246 0.754,-1.25 1.75,-2.496 2.75,-3.746 0,-4.25 -1.25,-5.5 -4.996,-7 z m 937.686,1.75 c 0.25,1 0.75,2 1.25,3 5.75,8.746 11.49,17.496 17.49,26.242 3.5,1.75 6.75,4.75 10.5,2.25 1,-2.5 2,-3.75 2,-6.5 -0.75,-1.25 -1.5,-2.5 -2,-4 -4.75,-6.746 -9.25,-13.492 -13.75,-20.242 -5.25,-0.246 -10.5,-0.5 -15.49,-0.75 z m -29.24,5.5 c -4,2.246 -5.25,4.996 -2.25,8.996 3.25,1.5 7.25,2 8.5,-2.25 0,-4.996 -1.25,-6.496 -6.25,-6.746 z m -909.196,10.246 c -5,0.75 -9.746,1.25 -14.496,1.75 -9.997,14.492 -22.243,30.238 -29.989,45.985 0,6.246 5.996,8.746 10.496,5.25 11.493,-16.747 23.243,-33.743 34.989,-50.735 0,-0.5 0,-1 0.25,-1.75 -0.5,0 -1.004,-0.25 -1.25,-0.5 z m 31.738,0 c -1.25,1 -2.5,1.75 -3.75,2.5 -2.25,4.496 -0.5,7.746 3.25,10.746 1.5,0.25 3,0.25 4.5,0.25 4.496,-3.25 4.246,-4 4.246,-9.5 -1.496,-2.496 -5.246,-3.496 -8.246,-3.996 z m 847.468,5 c -1.75,1 -3.25,1.996 -4.75,2.996 -1,2 -1,3.75 -1,6 2,5.996 9.75,5.996 13,1.25 0,-3 -0.25,-5.75 -1.75,-8.5 -2,-0.496 -3.75,-1 -5.5,-1.746 z m 33.49,1.25 c -1,0.246 -1.75,0.496 -2.5,0.496 12.24,17.996 24.49,35.989 36.73,53.731 3.75,0.754 6,2.5 9.25,-0.746 1,-2 1,-5 0.75,-7.5 -10.5,-14.993 -20.74,-29.989 -30.99,-44.985 -4.5,-0.25 -8.99,-0.5 -13.24,-0.996 z m -442.357,2.496 c 0,12.746 2.75,26.742 5,39.239 2.747,9.496 5.747,18.746 8.747,27.992 7.75,17.492 19.74,39.734 36.48,50.23 2.01,0.25 4,0.5 6.26,0.5 0.24,-2 0.49,-3.996 0.74,-6.246 -4,-21.742 -9.74,-43.988 -14.74,-65.48 -3.75,-3.246 -7.25,-6.496 -10.75,-9.746 -10.24,-11.747 -20.49,-23.493 -30.737,-35.239 -0.25,-0.25 -0.25,-0.75 -0.25,-1.25 -0.25,0 -0.5,0 -0.75,0 z m -24.992,3 c -11.996,12.996 -24.488,26.989 -36.988,39.485 -6.996,14 -9.746,33.742 -12.992,48.484 -2,6.75 -4,13.496 -6,19.996 0,3.496 -0.5,4.5 2,6.996 13.496,-1.5 20.492,-12.996 28.738,-22.742 14.25,-22.242 21.746,-45.234 25.242,-71.227 0.25,-6.996 0.75,-13.996 1.25,-20.992 -0.5,0 -1,0 -1.25,0 z m -382.121,5 c -1.5,1.246 -2.996,2.246 -4.496,3.246 -1.75,7.5 1.25,14.496 10.496,11.996 1.25,-1.25 2.496,-2.5 3.746,-3.75 0,-2.246 0,-4.746 0,-7.246 -1.25,-1 -2.496,-2.25 -3.496,-3.5 -2.254,-0.25 -4.25,-0.496 -6.25,-0.746 z m 780.99,4.996 c -1.75,1.5 -3.5,3 -5,4.25 0,8.496 1.25,11.246 9.99,11.246 4,-3.5 5.5,-5.496 4.75,-10.996 -2.75,-2.75 -5.74,-4 -9.74,-4.5 z m -829.224,2.5 c -15.242,20.993 -29.988,42.489 -44.235,64.227 0,4 1.5,6.25 3.997,8.75 1.5,0.25 3,0.25 4.753,0.25 1.247,-1.004 2.497,-2 3.747,-3.25 15.492,-22.492 31.242,-44.984 46.984,-67.481 0,-0.496 0.25,-1.25 0.5,-1.996 -5.25,0 -10.5,-0.25 -15.746,-0.5 z m 866.454,5 c 0,0.746 0.26,1.496 0.51,1.996 15.99,23.493 32.24,46.985 48.48,70.477 0.75,0.5 1.5,1 2.5,1.25 7.74,0 7,-3.25 7.5,-9.496 -13.25,-21.742 -28.74,-42.734 -43.24,-63.481 -5.25,-0.25 -10.5,-0.5 -15.75,-0.746 z m -838.462,19.243 c -11.996,16.996 -24.742,34.488 -36.238,52.23 -2.996,0 -6.746,11.5 -9.746,12.996 -3.25,5 -6.496,9.746 -9.496,14.496 -1.5,6.246 -0.5,7.246 3.246,10.996 1.75,0 3.5,0 5.5,-0.25 20.742,-29.488 41.484,-58.98 62.23,-88.468 0.25,-0.5 0.5,-1.25 0.746,-2 -5.496,0 -10.992,0 -16.242,0 z m 811.222,3.996 c 0,0.504 0,1 0,1.5 19.5,28.992 39.24,57.73 58.99,86.472 1.75,1 3.5,2 5.5,2.996 7.24,0 6.99,-5.746 4.99,-11.242 -17.99,-25.992 -35.98,-52.234 -53.98,-78.476 -5.25,-0.25 -10.5,-0.746 -15.5,-1.25 z m -733.745,5 c -1.25,1.75 -2.5,3.5 -3.504,5 -1.5,3.996 -2.996,7.996 -4.496,11.996 -1.5,1.996 -3,3.996 -4.5,5.996 -0.75,6 -2.497,12.746 1.75,17.996 4.75,0 8,-7.25 11.246,-9.75 6,5 13.746,10 21.992,7.25 1.25,-1.5 2.75,-3.25 4.25,-5 0,0 9.746,-27.992 8.996,-28.738 -3,-0.254 -5.75,-0.504 -8.496,-1 -5.25,5.246 -9.5,13.496 -13.246,19.992 -0.5,1.25 -1,2.5 -1.5,3.496 -0.25,0.254 -0.5,0.254 -0.75,0.254 -1.5,-2.5 -3,-5 -4.246,-7.746 -0.254,-5.75 -0.5,-11.5 -0.5,-17.496 -2.5,-0.75 -4.75,-1.5 -6.996,-2.25 z m 672.515,2.5 c -1,0.496 -1.99,0.75 -2.75,1 0,6.996 0,14.492 -1.99,21.242 -1,1.75 -2,3.496 -3,5.246 -0.5,0 -1,0 -1.25,0 -3.75,-7.496 -8.25,-17.742 -14.24,-23.738 -3,0.25 -6,0.996 -8.5,2.246 0.75,9.75 7,20.746 10.74,29.492 6,6 12.25,2 19.49,-1.5 5.5,0.25 11.25,1.246 14.5,5.746 5.75,0 4,-14.996 3.75,-18.492 -0.75,-0.25 -1.5,-0.75 -2.25,-1.25 -2.75,-6 -7.25,-18.246 -14.5,-19.992 z m -615.039,4.996 c -2.25,0.75 -4.496,1.25 -6.496,1.754 -6,10.496 -6.996,23.488 -8.496,35.484 9.996,-4.996 17.742,-27.242 18.742,-37.238 -1.25,0 -2.5,0 -3.75,0 z m 558.809,1.754 c -0.49,0.246 -1,0.496 -1.5,0.746 1.01,11.746 9,26.992 17.5,35.488 0.25,0 0.75,0 1.25,0 -1.25,-6.746 -2.5,-13.492 -3.75,-20.492 -1.75,-4.996 -3.5,-10 -5,-15.246 -3,0 -5.75,-0.25 -8.5,-0.496 z m -278.153,0.746 c -2.25,4.5 -6.5,9.75 -9.496,13.996 -2,2.5 -3.75,4.746 -5.496,6.996 4.996,-0.75 9.992,-1.496 14.992,-2.25 5.25,0 10.996,0.754 16.246,1.754 -5,-6.25 -9.746,-12.75 -14.496,-19.246 -0.75,-0.25 -1.25,-0.75 -1.75,-1.25 z m -268.16,11.25 c -1,2.496 -6.246,10.492 -5.246,12.492 2.25,1.25 4.496,2.5 6.996,3.5 0.75,0.25 1.5,0.25 2.25,0.25 -0.25,-1 -0.25,-2 -0.25,-3.25 -1,-4.25 -2,-8.5 -3,-12.992 -0.25,0 -0.5,0 -0.75,0 z m 535.573,2.496 c -1,5.5 -2,10.746 -3,15.996 3.5,-0.25 6.25,-1.25 9,-3.25 0,-1.25 0,-2.75 0.25,-4.25 -2.25,-2.746 -4.25,-5.496 -6.25,-8.496 z m -603.549,18.492 c -2.5,1.754 -4.746,3.5 -7,5.25 0,4.75 5.004,11.246 7,15.496 4.5,7.246 8.996,14.496 13.746,21.738 11.996,1.754 27.988,8 39.734,2.254 3.25,-4 6.75,-7.996 10.25,-12.246 -0.754,-7.5 -1.5,-14.996 -2,-22.492 -1.5,-2 -2.75,-4 -4,-6 -0.75,0 -1.25,0 -1.75,-0.25 -2.996,2.496 -5.996,4.75 -8.746,6.996 0,3.5 0.25,6.75 0.5,10 -8.746,0 -16.746,-14.246 -18.246,-20.492 -4.996,1.996 -9.746,5.496 -15.242,4.746 -4.75,-1.5 -9.496,-3.246 -14.246,-5 z m 643.039,0.254 c -4.5,6.746 -8,21.742 -17.75,21.742 -0.25,-2.75 -0.5,-5.75 -0.5,-8.75 -3,-2.75 -6,-5.5 -8.75,-8.246 -0.75,0 -1.5,0 -2,0 -1.25,1.75 -2.5,3.5 -3.75,5.246 -2.24,7.25 -3.49,15.246 -3.49,22.992 3.49,4.75 7,9.246 10.74,13.746 4.5,1.25 9,2.25 13.75,3.25 9.25,-2 18.49,-4.246 27.99,-6.5 3.5,-1.746 8,-11.996 9.74,-15.242 3,-6 6.25,-11.996 9.5,-17.996 0,-3.746 -5.25,-8.996 -9,-8.996 -3.99,1.75 -7.99,3.25 -11.99,4.746 -1,0.254 -2,0.254 -3,0.254 -4,-2 -7.75,-4 -11.49,-6.246 z m -308.653,4.996 c -5.496,2.246 -10.996,5.246 -15.992,8.746 -3.25,3.25 -21.742,23.492 -19.246,25.992 4.25,0.5 8.5,1 12.996,1.25 17.246,0 34.738,0 52.235,0 3.25,-0.25 6.5,-0.5 10,-1 -6,-7.496 -11.75,-15.246 -17.5,-22.992 -6.747,-6.75 -12.993,-10.246 -22.493,-11.996 z m -263.16,12.246 c 0,4.25 0,8.496 0,12.496 2,-1 7.996,-6.5 7.996,-9.246 -2.75,-1.004 -5.496,-2 -7.996,-3.25 z m 529.073,2 c 0,2 -6.75,0.5 -6.75,4.746 1.5,2.25 4.25,7.746 7.5,7.746 0,-3.996 0,-7.996 0,-11.992 -0.25,0 -0.5,-0.254 -0.75,-0.5 z m -430.854,25.738 c 4.746,20.993 17.492,39.993 33.988,53.483 1,0.25 2.25,0.25 3.496,0.25 11.246,-11.24 18.496,-29.24 23.493,-44.487 -5.497,0 -24.993,-3.496 -25.989,-2.496 -1,8.493 -1.75,16.993 -2.5,25.493 -0.25,0 -0.5,0 -0.75,0 -1.5,-2.75 -3,-5.75 -4.25,-8.75 -2.75,-6.75 -5.25,-13.49 -7.746,-20.493 -6.75,-0.996 -13.246,-1.996 -19.742,-3 z m 331.634,1.75 c -6.5,1.25 -12.99,2.5 -19.24,3.75 -3,6.993 -6.5,18.243 -11.75,23.493 -0.5,-7 -1,-14.25 -1.5,-21.493 -8.99,1.25 -17.74,2.503 -26.49,3.753 3.25,17.24 12,30.99 23.24,43.73 4.5,0 11.5,-7 14.75,-9.74 2.5,-3.25 5.25,-6.75 8,-10.25 5.75,-9.5 9.24,-20 13.24,-29.993 -0.25,-1 -0.25,-2 -0.25,-3.25 z m -485.337,7.496 c -2.996,2.997 -5.746,9.747 -7.746,13.747 -3.246,8.5 -8.996,19 -10.496,28.24 -1.996,6.25 -3.746,12.5 -5.496,18.74 -1.75,10.75 -3.5,21.5 -5,32.25 0,7.74 0,15.49 0,22.99 2.5,26.49 8.25,51.48 21.242,74.72 -3.496,0 -6.496,-2.5 -9.496,-4 1,9 2,18 3,26.74 4.25,9 8.746,18 13.246,26.75 2.246,7.74 4.5,15.24 6.996,22.74 6.25,-3 8.746,-14 10.996,-20.24 1.25,-7 2.5,-14 3.75,-21.25 0,-7 -10.246,-16.74 -8.496,-22.49 6.496,2.25 12.496,3.25 19.242,3.5 6.75,-6.75 10.996,-16.5 14.996,-24.75 -0.5,-1.24 -0.75,-2.74 -1.004,-4.24 -4.496,-10.5 -8.992,-20.99 -13.492,-31.49 -2.996,-9.5 -5.746,-19.25 -8.496,-28.99 -1.75,-9.5 -3.5,-19 -5,-28.74 -1,-13.75 -1.75,-27.74 -2.5,-41.74 -5.246,5.25 -8.496,16.74 -11.242,23.24 -0.504,2.25 -1.004,4.25 -1.5,6.25 -2.004,8.5 -3.75,17 -5.5,25.5 -0.75,4.99 -1.25,9.74 -1.75,14.49 -0.25,10.99 -0.5,21.99 -0.75,32.74 0,1.75 0,3.5 0.25,5.25 -1.75,-10.25 -3.5,-20.5 -5.246,-30.74 -1.25,-22.75 -0.5,-45.24 4.496,-67.48 2,-7 4,-14 6.25,-21.24 3.246,-8.5 7.746,-17.5 9.746,-26.25 -3.25,-1.99 -7.246,-3.49 -11,-4.247 z m 635.287,0 c -3,1.497 -6,2.997 -8.99,4.247 0,0.5 0,1 0,1.5 6.74,17 12.49,34.74 17.49,52.24 1,6.24 2,12.49 3,18.74 1.5,24.49 0.25,48.98 -5.25,72.73 0,-8.25 0,-16.5 0.25,-25 -1.75,-27.49 -6,-55.23 -18.74,-79.97 -0.5,-0.5 -0.75,-1.25 -1,-2 -0.5,0 -0.75,0 -1,0 -2,16 -1.5,32.24 -3.5,48.24 -3,18.24 -7.75,36.23 -13.25,53.73 -4.75,10.75 -9.24,21.24 -13.74,31.73 0,8.5 10.24,18.75 13.99,25.75 7.25,0.5 14,-1 20.75,-3.25 -1.25,6.5 -6,14 -9,19.99 1.25,16.25 4,31.49 13.75,44.49 0.25,0 0.49,0 0.99,0 4,-18.24 11.75,-33.74 20.25,-49.99 0.5,-8.74 1.5,-17.74 3.24,-26.49 -3.49,1 -5.99,4 -9.74,4 2.25,-4.5 4.5,-9.25 7,-13.99 1.99,-5.75 3.99,-11.5 6.24,-17.25 1.5,-6.74 3.25,-13.49 5,-20.24 0.75,-6.25 1.5,-12.75 2.5,-19.25 0,-8.99 0,-18.24 0.25,-27.49 -3,-31.74 -12.25,-63.47 -27.49,-91.71 -1,-0.25 -2,-0.51 -3,-0.757 z m -265.66,5.007 c -27.24,3.24 -56.729,1.49 -84.221,1.49 -5.746,-0.25 -11.246,-0.5 -16.746,-1 -1.996,4 -6.746,7.5 -9.746,10.75 -6.996,6.5 -13.992,13 -20.992,19.5 -4.996,3.74 -9.996,7.24 -14.996,10.74 -5.246,3 -10.496,6 -15.493,8.75 -6.496,2.75 -12.996,5.49 -19.246,7.99 0.504,3 0.754,7.5 2.5,10 26.493,-1.5 52.985,-3 79.727,-4.75 28.988,-0.25 57.98,-0.5 86.973,-0.75 26.99,0.75 54.23,2.5 80.97,5.5 3.5,0.25 6.99,0.5 10.74,0.75 0.75,-3 1.75,-6 2.75,-9 -0.5,-0.5 -0.75,-1 -1,-1.5 -10.99,-4.5 -20.99,-9.49 -31.23,-15.24 -6.25,-4.25 -12.5,-8.5 -18.75,-12.74 -9.5,-7.75 -23.99,-19.25 -29.24,-30 -0.75,0 -1.5,-0.25 -2,-0.49 z m -332.139,62.97 c -0.496,9 -0.746,17.75 -1,26.5 1,17.99 3.75,32.98 10.25,49.98 1.746,3.5 3.496,6.75 5.25,9.99 0.246,0 0.496,0 0.996,0 5.5,-21.24 5,-41.73 -0.996,-62.47 -2.254,-4.75 -4.5,-9.5 -6.75,-14.5 -1.75,-2.75 -4.5,-8.5 -7.75,-9.5 z m 563.559,3.75 c -2.75,4 -5.25,8 -7.74,11.75 -1.75,3.25 -3.25,6.5 -4.75,9.75 -1.75,5.49 -3.5,10.99 -5,16.24 -2.25,15.24 -4,33.74 2.25,48.23 0.25,0 0.5,0 0.75,0 8.5,-18.24 13.74,-37.99 15.74,-57.98 0,-8.99 0,-18.24 0,-27.49 -0.5,0 -1,-0.25 -1.25,-0.5 z m -346.129,5 c -7.75,1.25 -15.246,2.25 -22.746,3.25 -4.996,8 -9.496,16 -12.242,24.99 0.5,0 1,-0.25 1.746,-0.5 5.75,-6.5 9.75,-12.49 17.996,-14.49 -2.25,11.49 -4.5,22.99 -6.496,34.48 -2.25,5.5 -4.5,10.75 -6.746,16 -0.504,2.75 -0.754,5.25 -1.004,7.75 6,0 7.996,-9.5 13.246,-11.25 -2.25,15.25 -4.246,30.49 2,44.98 1.5,2.25 3,4.25 4.5,6.25 5.996,5.25 12.492,10.75 18.992,15.25 0.5,0.75 1.25,1.25 2,1.75 13.996,-1.25 27.988,-2.5 42.234,-4 2.75,0 2.25,-16.25 2.25,-18.25 -0.5,-1.5 -1,-3 -1.5,-4.75 -4.75,-2.74 -9.496,-5.49 -14.242,-8.49 -4,-1.25 -8,-2.5 -12,-3.75 -11.496,0 -20.492,-0.25 -31.238,6 -0.75,0 -1.25,0 -1.75,0 0.5,-6.25 2.25,-11.25 4.5,-17 1.75,-2.49 3.496,-5.24 5.25,-7.99 6.996,0 12.992,4.74 18.992,8.25 10.746,4.49 19.742,5.49 31.238,5.49 0.5,-2.75 1.25,-5.75 2,-8.75 0,-6.74 -0.75,-15.74 -4.5,-21.49 -5.746,-3.75 -13.746,-9 -20.742,-10.24 -3.25,0 -6.25,0 -9.246,0 -3.75,1.24 -7.5,2.24 -11.246,3.24 -4.75,2.5 -9.496,4.75 -13.996,7 0,-7 6.746,-24.49 15.246,-24.49 13.496,7.25 27.492,13.49 43.484,11.25 1,-5.25 1,-10.75 1.25,-16 -0.5,-1.75 -1,-3.74 -1.5,-5.75 -3.5,-4.99 -8.246,-9.24 -13.496,-12.74 -2.496,-1 -4.996,-2 -7.496,-3.25 -4.25,-0.75 -8.496,-1.5 -12.496,-2.5 -7.5,0 -14.996,0 -22.242,-0.25 z m 107.459,0.75 c -5.49,1 -10.99,2 -16.24,2.75 -3.5,1.5 -6.997,3 -10.247,4.5 -1.75,2 -3.5,3.75 -5.25,5.5 -0.996,2.24 -2,4.5 -3,6.74 -0.746,6.5 -1.746,12.5 -0.496,19.25 15.996,0 32.993,-1.5 46.983,-10.25 0.5,0 1.25,0 2,0 1.75,2.25 3.75,4.5 5.75,6.5 2.25,5.5 4,11.24 5.25,16.99 -7,-2.25 -14,-4.75 -21,-7.25 -4,0 -7.74,0 -11.49,-0.25 -12,2 -24.993,6.25 -28.243,19.75 0,3.5 0,7 0,10.24 0.75,3 1.5,6 2.246,8.75 3.75,0 7.5,0 11.247,0 7,-1.5 14,-3.25 20.99,-5 6,-2.25 12,-4.49 18.25,-6.75 6.24,6.26 8.49,13.75 9.5,22.25 -2.5,-0.75 -4.76,-1.75 -7,-2.75 -3.75,-0.75 -7.25,-1.5 -10.75,-2.5 -5.5,0 -10.74,0 -15.99,0 -10.75,2.5 -21.497,6.25 -27.743,15.74 -0.5,1.5 -1.004,3 -1.25,4.5 0.246,6 0.5,10.75 2.996,16 12.75,0.25 25.747,1 38.237,3.75 8.75,0 19,-12 24.99,-17.5 3.75,-5.25 7,-11 9.75,-16.74 2.5,-10.75 -1.5,-24.24 -3.75,-34.74 5.75,1 10,6 14,10 0.25,0 0.5,0 0.75,0 0,-7 -2.5,-14.5 -6.25,-20 -0.25,-7 -1.25,-14.99 -2.75,-21.99 -1.5,-4.75 -3,-9.5 -4.5,-14.24 7.75,0 13.25,9.99 19.24,12.99 -0.99,-8.74 -5.99,-15.49 -10.74,-22.49 -11.5,-1 -23,-2.25 -34.24,-3.5 -3.75,0 -7.5,0 -11.25,-0.25 z m -151.194,3.25 c -3.25,1 -6.5,2 -9.5,2.75 -8.746,13.24 -11.246,33.23 -14.492,48.48 -1.25,5.75 -2.5,11.5 -3.75,17.25 -2,6.99 -5,14.24 -7.75,21.24 -5.496,9.24 -10.992,18.24 -16.492,27.24 6.996,-6 13.992,-12 20.992,-18 7.5,-6.99 15.496,-13.99 18.246,-24.24 2.25,-13.49 4.496,-27.24 6.746,-40.98 0.5,-2.75 1.25,-5.75 2,-8.75 3,-8 5.997,-15.99 8.997,-23.99 -1.747,-0.25 -3.497,-0.5 -4.997,-1 z m 212.924,3.5 c 2.5,6.25 5,12.49 7.75,18.74 1.5,8.5 3.25,16.99 5,25.24 1.25,9.25 2.5,18.25 3.75,27.24 3.25,12 11.49,20.49 19.99,28.99 6,5.25 12,10.5 18,15.5 0,0.25 0,0.5 0,0.75 0.24,0 0.49,0 1,0 0,0.5 0,0.75 0,1 0.25,0.25 0.74,0.25 1.24,0.25 -8.74,-12.5 -16.24,-26.25 -21.24,-40.74 -3.5,-12.74 -7,-25.74 -10.25,-38.74 -2.5,-8.99 -5,-18.24 -7.49,-27.48 -1.25,-3 -2.5,-6 -3.5,-9.25 -4.5,-1.5 -9.5,-1.25 -14.25,-1.5 z m -210.427,83.22 c -2.497,2.75 -4.997,5.5 -7.497,8.24 -8.75,15 -12.496,31 -12.496,48.49 6.496,0 14.496,-7.5 16.746,-13.25 0.497,-2.74 1,-5.49 1.747,-8.24 0.503,-10 1,-20 1.5,-29.99 0.25,-1.5 0.503,-3 1,-4.75 -0.497,0 -0.75,-0.25 -1,-0.5 z m 209.177,1.75 c 0.76,3.5 1.5,6.74 2.25,9.99 0.75,17.25 -2.99,45.99 20.99,48.24 -2.49,-13.25 -3.99,-27.49 -7.99,-40.49 -3.5,-7.5 -8.75,-12.99 -15.25,-17.74 z m -458.092,3.99 c -2.25,6 -3,16.25 0,22.25 0.75,0 6.747,-10.5 7.497,-12.5 0,-2.25 -5.997,-8.25 -7.497,-9.75 z m 709.262,3.75 c -2,3 -4,5.75 -5.75,8.5 0,5.25 2.75,10.75 4.5,15.75 0.25,0 0.5,0 0.75,0 2,-8 1.75,-16.25 1.75,-24.25 -0.5,0 -1,0 -1.25,0 z m -261.66,7.25 c -7.25,18.5 -28.5,35.74 -48.49,37.74 -3.99,4 -14.49,11.5 -15.49,16 -7.75,10.99 -16.247,21.74 -19.247,35.23 -0.746,2.5 -1.246,5 -1.75,7.5 2.75,0 6,-1.75 8.5,-2.75 15.997,-9.5 30.737,-22.49 47.487,-30.74 4.24,-1.5 12.49,-3.74 16.49,-6.49 -0.25,-0.25 -0.5,-0.75 -0.5,-1.25 -6.25,-0.75 -12.5,-1.5 -18.49,-2.5 11.74,-10 26.24,-18.75 33.24,-32.99 0.5,-1.5 1,-3.25 1.75,-5 0,-5.5 1.75,-12.25 -3.5,-14.75 z m -187.437,0.25 c -1.004,1.75 -1.754,3.25 -2.5,4.75 -0.25,3.25 -0.25,6.25 -0.25,9.25 6.996,17.49 23.992,27.99 36.734,40.74 -2.746,0 -16.992,-0.75 -17.742,1.5 3.246,1.75 6.5,3.49 9.746,4.99 15.746,10.75 30.738,23.25 47.234,32.49 3.746,1.75 8.5,5 12.996,5 -1,-12.25 -9.746,-24.99 -15.496,-35.24 -5.996,-8.49 -12.746,-16.74 -19.492,-24.74 -12.746,-4.5 -23.492,-9.75 -34.238,-17.99 -3.75,-3.75 -7.496,-7.75 -10.996,-11.75 -1.75,-2.75 -3.75,-6.75 -5.996,-9 z m 436.097,29.24 c -5,12.75 -9.49,22 -10.74,35.49 0.75,12.5 4.99,24.49 9.24,36.24 0.25,0 0.5,0 0.75,0 0.5,-4.75 1.25,-9.5 2,-14.5 -0.25,-18.74 -1.75,-38.48 -0.25,-57.23 -0.5,0 -0.75,0 -1,0 z m -518.07,2 c -1.754,1.75 -3.75,4 -5.75,5 -3.75,3.75 -7.496,7.5 -10.996,11.25 -2,3 -3.75,5.75 -5.5,8.5 0,5.24 2.25,9.99 4,14.99 0.5,0 1,0 1.5,0 3.5,-5 6.996,-10 10.746,-14.99 0.5,-3 1,-6.25 1.75,-9.5 1.5,-5 3.25,-10 4.996,-15.25 -0.25,0 -0.496,0 -0.746,0 z m -167.445,0.5 c 0,4.5 0,9 0.25,13.25 -1.5,16.75 -5,35.74 0,51.98 0.246,-0.25 0.75,-0.5 1.25,-1 3.496,-15.74 10.746,-30.99 7.496,-47.23 -1.75,-4.25 -4.996,-15 -8.996,-17 z m 359.128,1.25 c -3.5,1 -3.75,1.75 -4.996,4.5 0,1.5 -0.504,16.5 3.746,14.5 4.997,-5.5 10.497,-10.5 13.747,-17.25 -4.25,-0.5 -8.497,-1 -12.497,-1.75 z m -37.488,0.75 c -2,0.5 -3.746,0.75 -5.496,1 3.996,6.25 7.996,12.25 11.996,18.25 5.996,0 4.746,-13 3.496,-17 -1.996,-2 -7.246,-2 -9.996,-2.25 z m 197.685,0.5 c 0.5,2 1.25,4 2,5.75 1,6 2,12 3.25,18 3.49,5.25 7.24,10.49 10.99,15.49 0.5,0.25 1,0.25 1.75,0.25 0.5,-3.25 2,-7.25 3.5,-10.25 0,-5.74 -7.5,-14.74 -10.75,-19.24 -3.75,-3.25 -7.24,-6.5 -10.74,-10 z m -444.853,7 c 2.25,6 4.75,11.75 7.25,17.5 25.742,7.74 48.731,27.49 65.227,47.98 0.25,0 0.5,0 1,0 -2.25,-14 -5.25,-26.49 -13.742,-37.49 -5.5,-4.75 -10.747,-9.5 -15.997,-14.24 -4.75,-2.5 -9.25,-5 -13.746,-7.5 -9.746,-3 -19.742,-5.25 -29.992,-6.25 z m 154.699,1 c -2.75,3.5 -5.246,6.75 -7.746,10 -5.496,5 -10.996,9.99 -16.246,14.99 -8.496,6.5 -16.996,12.75 -25.242,19 0,0.49 0,0.74 0.25,0.99 16.246,-8.74 35.238,-10.24 52.484,-16.49 0.75,-1.5 1.75,-3 2.747,-4.5 1.25,-4.49 2.5,-9.24 4,-13.99 -3.497,-3.25 -6.997,-6.5 -10.247,-10 z m 228.924,2 c -4.25,3.25 -8.25,6.5 -12.25,9.5 0,7.49 4,14.74 7.75,20.99 16.99,3.25 34.49,7.5 50.74,13.24 -0.25,-0.49 -0.51,-1 -0.51,-1.5 -14.74,-10.49 -27.99,-20.49 -39.73,-34.23 -1,-2 -4.25,-7.25 -6,-8 z m -262.412,1.25 c -2.496,5.25 -8.996,9 -10.746,14.24 13.746,0 19.492,-1.49 24.992,-14.24 -4.75,0 -9.5,0 -14.246,0 z m 409.862,0.75 c -5.5,1 -11,2 -16.24,2.75 -16,5.75 -29.5,16.49 -41.24,28.24 -1.25,1.5 -2.5,3 -3.75,4.5 -2,9.49 -6,18.99 -6.5,28.74 0.25,0 0.75,0 1.25,0 1.75,-2.25 3.5,-4.5 5.25,-7 16.99,-18 35.99,-33.99 59.98,-40.74 2.25,-5.24 4.5,-10.49 6.75,-15.99 -2,0 -3.75,-0.25 -5.5,-0.5 z m -127.71,2.5 c 0,11.24 16.25,13.49 24,13.49 0,-2.25 -9.5,-10.99 -11.5,-12.99 -4.25,0 -8.5,-0.25 -12.5,-0.5 z m -417.109,0.5 c -2.496,4.25 -4.996,8.5 -7.496,12.5 -0.996,3.24 -1.75,6.24 -2.496,9.24 -0.504,6.5 -1,12.99 -1.25,19.49 0.25,0 0.746,0 1.25,0 5.246,-7.75 10.746,-15.49 16.242,-23.49 0,-4.99 -3.25,-12.49 -5,-17.24 -0.496,0 -1,-0.25 -1.25,-0.5 z m 564.059,3 c -2,6.24 -6.49,14.24 -6.49,20.74 5.24,6.5 10.49,13 15.99,19.49 0.25,0 0.5,0 1,0 -2,-13.24 -5.25,-26.24 -9.25,-38.98 -0.5,-0.25 -1,-0.75 -1.25,-1.25 z m -406.86,27.74 c -6.496,2.5 -10.246,7.24 -15.492,11.99 -13.496,6 -28.992,14.25 -35.742,27.75 15.746,-8 32.992,-14.5 49.984,-19.25 4,-2.75 5.246,-5.75 7.5,-9.75 0,-2.75 0,-5.5 0,-8.49 -1.5,-1.5 -4,-1.75 -6.25,-2.25 z m 244.42,1 c -1,0.5 -1.75,1 -2.5,1.5 0,7.24 2.5,13.24 6.25,19.49 0.99,0.75 2,1.25 3.25,1.75 15.99,4.25 32.24,9.25 46.73,17.25 0.5,0.24 1.25,0.24 2,0.24 -1.75,-2 -3.25,-4.24 -4.75,-6.49 -8.25,-8.25 -17.49,-14.75 -27.99,-20 -3,-3.25 -5.75,-6.5 -8.5,-9.74 -1.25,-0.76 -2.5,-1.5 -3.75,-2.5 -3.74,-0.5 -7.25,-1 -10.74,-1.5 z m -444.849,3.75 c -16.246,35.23 -13.746,83.22 8.246,115.46 2.25,2.5 6.746,9.74 10.496,9.74 -0.25,-1.75 -2.5,-9 -1.5,-9.99 2.75,0.99 5.5,3.74 8.496,3.74 -3.75,-10.49 -6.996,-21.74 -9.996,-32.73 -3.746,-22.75 -7.25,-45.74 -9.496,-68.73 -2,-5.5 -3.75,-11.25 -5.5,-17 -0.25,0 -0.5,-0.24 -0.746,-0.49 z m 21.738,0 c -2.246,2.99 -4.496,5.99 -6.746,8.74 0.5,10 0.75,21 3.25,30.74 0.25,0 0.5,0 0.996,0 0.504,-7.99 1.004,-16.24 1.5,-24.49 0.754,-5 1.5,-10 2.25,-14.99 -0.5,0 -1,0 -1.25,0 z m 603.801,0 c 1.5,16.24 3,32.98 6,48.98 0.25,0 0.5,0 0.75,0 2.74,-11.5 3.99,-24.49 3.99,-36.24 -2.49,-3.25 -7.49,-11.24 -10.74,-12.74 z m -235.67,0.25 c -4.25,2.5 -8.5,4.99 -12.75,7.49 -5.74,3.5 -11.24,6.75 -16.74,10 -12.5,6.25 -26.243,13 -40.489,13 -19.996,-5.5 -38.238,-16.75 -55.73,-27.5 -2.25,-0.49 -4.25,-1 -6.25,-1.74 -2.5,0 -4.746,0 -6.996,-0.25 -7.75,3.74 -13.496,10.49 -19.496,16.49 0,3.75 5.5,9.25 7.746,12.5 11.996,2.49 23.996,6.99 35.242,11.74 7.996,11.5 18.242,20.74 28.488,30.24 6.5,17 9.25,34.99 12.246,52.98 0.5,0 1,0 1.5,0 1.25,-3.75 2.5,-7.5 3.75,-11.49 0.746,-3.25 2.246,-14.5 4.496,-16.75 1.5,8 3.25,16 5,23.99 1,3.25 1.5,5 3.246,6.75 0,-17.49 4.75,-37.24 12.5,-52.98 6.247,-5.5 12.747,-11 19.247,-16.74 3.5,-4.75 7.24,-9.75 10.99,-14.75 6.75,-3 13.75,-6 20.99,-8 4.75,-1 9.75,-1.99 14.75,-2.99 2.5,-3.75 8.75,-11.75 6.25,-17 -2.5,-2.5 -5,-5 -7.5,-7.5 -3.25,-1.5 -6.25,-3.25 -9.25,-4.99 -3.75,-0.76 -7.5,-1.5 -11.24,-2.5 z m 259.91,2.99 c -1.75,7.75 -3.5,15.5 -5,23 -3.25,20.74 -6.49,41.48 -9.49,61.98 -1.76,7.49 -3.5,14.74 -5,21.99 -1,1 -3,8 -3,9.74 1.5,-0.25 3,-0.5 4.5,-0.75 -0.5,2.5 -1,5 -1.5,7.25 -1.25,3.25 -2.5,6.5 -3.5,9.75 0.25,0 0.75,0 1.25,0 4.75,-5.75 9.49,-11.75 14.49,-17.75 11.25,-19.49 17.74,-37.23 18.99,-59.98 0,-18.74 -4.49,-37.48 -10.99,-54.73 -0.25,0 -0.5,-0.25 -0.75,-0.5 z m -581.553,5.75 c -6.25,4.25 -11.5,9 -16.246,14.75 -3.5,5.5 -7,11 -10.246,16.49 0.5,10.75 4.496,20.99 8.746,30.74 -6.246,-2 -10.996,-9 -15.496,-13.49 -1.496,-1.76 -2.996,-3.5 -4.496,-5.5 -0.504,4.75 -1,9.49 -1.25,14.24 0.25,6.75 0.5,13.5 0.746,20 1.004,6.5 2.004,12.99 3.254,19.24 2.246,7.25 4.496,14.24 6.746,21.24 5.996,13.25 12.496,25.99 20.492,37.99 0.25,0.25 0.75,0.25 1.25,0.25 -1,-8.5 -2,-17.24 -3,-25.99 0,-0.5 0.254,-1 0.5,-1.75 4,2.75 5.25,5 10.246,4 3.25,-2.5 6.75,-6 10.75,-7.25 2.746,4 9.992,16 15.492,16 0,-9 -3.246,-20.75 0.5,-29.5 3.25,-6 6.497,-11.99 9.997,-18.24 3.75,-10.74 3.5,-14.24 15.746,-11.99 1,-3.5 2.25,-7 3.496,-10.5 0,-5.75 0,-11.75 0,-17.75 -1.996,-10.24 -5.246,-22.24 -9.996,-31.73 -3.75,-2.25 -7.246,-4.75 -10.746,-7.25 -11.747,-5.75 -23.243,-11.5 -36.485,-14 z m 512.823,3.5 c -4.74,1 -9.24,2 -13.74,3 -11.75,3.75 -22.99,10.75 -33.24,17.75 -9,14.99 -12.25,41.98 -6.25,58.23 2.75,0.49 5.5,1 8.5,1.49 5.5,8.75 11.24,17.5 16.99,25.99 0,10.75 -1,23 0.75,33.49 5.75,-3.74 10.75,-8.99 14.25,-14.74 6.75,0 11.25,9.25 18.24,7.5 1.25,-1 2.5,-2 3.75,-3.25 -0.5,8.74 -1,17.24 -1.25,25.74 0.25,0 0.5,0 0.75,0 3.25,-5.75 6.75,-11.75 10.24,-17.74 3,-7.25 6,-14.5 9,-21.75 4.75,-12.25 6.5,-25.99 8.5,-38.73 0,-10 0,-20.25 0.25,-30.49 -2,0 -4.25,3.74 -5.25,4.99 -3,2.75 -7.49,7.5 -11,9.25 2.01,-9.75 6,-22.24 6,-32.74 -6.74,-9.74 -14.99,-19.24 -23.24,-27.74 -1.25,0 -2.24,0 -3.25,-0.25 z m -402.362,21.25 c -2.75,1 -5.5,1.99 -8.246,2.99 -7.25,4.5 -19.996,11.75 -22.246,20.75 7.75,-3.75 16.996,-6 24.496,-10.25 4.996,-5 5.496,-6.75 7.746,-13.49 -0.75,0 -1.25,0 -1.75,0 z m 291.152,1.49 c -0.25,0.5 -0.5,0.75 -0.5,1.01 2.5,4.24 5,8.49 7.5,12.49 8.99,4.75 17.99,9.49 27.24,13.99 -2.5,-3.74 -5,-7.49 -7.25,-11.24 -5.25,-5.25 -10.75,-10.5 -17.49,-13.75 -3.25,-0.75 -6.5,-1.49 -9.5,-2.5 z m -257.914,7.5 c -24.492,4.25 -47.984,18.24 -67.226,33.99 -6.25,7 -13.996,14.99 -17.746,23.49 -0.996,5.25 -1.75,10.5 -2.496,15.49 -0.25,8.25 -0.25,16.25 -0.25,24.25 1.75,13.49 4.5,23.24 10.996,35.24 2.246,3.75 4.25,7.5 7.746,9.24 -1.25,-3.99 -2.5,-7.99 -3.496,-11.99 -1.004,-4.75 -1.754,-9.75 -2.5,-14.75 -0.25,-8 -0.25,-15.99 -0.25,-24.24 0.496,-3.25 0.996,-6.5 1.5,-10 6.746,-16.99 20.992,-34.73 38.234,-41.98 1.75,3.25 3.746,6.25 5.75,9.25 4.996,4.99 8.246,5.24 14.996,4.5 5.246,-2.5 5.746,-8.25 5.746,-13.75 -1,-2.5 -1.75,-5.25 -2.5,-8 6.746,-1.5 13.746,-2 20.746,-2.5 0,-0.25 0,-0.5 0,-0.75 -3.253,-2.25 -6.25,-4.5 -9.25,-7 7.75,0 15.747,-0.25 23.743,-0.5 6.496,1 12.996,1.75 19.492,2.5 4.25,-1 8.5,-2 13,-3 0,-0.5 0.246,-1 0.496,-1.5 -14.246,-6.24 -28.488,-14.24 -44.234,-16.99 -4.25,-0.25 -8.497,-0.5 -12.497,-1 z m 215.934,1.25 c -15.75,4.25 -31.25,10.5 -45.99,17.49 -0.5,0 -1,0 -1.5,0 0,0.5 0,1 0,1.5 6,1 11.99,3.5 18.24,3.5 6.5,-1 13.25,-2.25 20,-3.5 6,0.25 12,0.25 18.24,0.25 0,3 -9.5,6 -10.74,10 6.99,0 15.74,-0.25 22.49,1.25 -2.25,5.5 -3.75,10 -3.25,16.25 4.24,5.24 6.24,6 12.74,7.74 4.25,0 5.75,-0.5 9,-3 1.75,-3.5 3.5,-7.24 5.5,-10.99 1,0.5 2.25,0.75 3.5,1 13.99,10.99 23.99,22.24 32.73,37.73 1.01,3.5 2.01,6.75 3.25,10 0.5,3.25 1,6.25 1.75,9.25 0,4.24 0,8.49 0,12.49 -2,9.75 -3.99,19.5 -5.99,29 0.25,0 0.75,0 1.24,0 1.25,-2.25 2.75,-4.5 4.25,-7 2.25,-4.75 4.5,-9.5 6.75,-14.5 1,-3.75 2,-7.75 3.25,-11.75 1.75,-13.99 4.25,-32.99 -1.25,-46.23 -2.5,-4 -4.75,-8.25 -7,-12.5 -9,-10.24 -18.74,-19.99 -29.73,-28.24 -18.25,-10.24 -36.74,-16.49 -57.48,-19.74 z m -140.461,32.49 c -0.246,0.5 -0.496,0.75 -0.496,1 1,3.5 2.246,6.75 3.496,10 2,8.74 4,17.49 6.25,26.24 1.496,13.74 5,29.99 1.746,43.73 -3.496,0 -10.492,-15.49 -12.246,-18.49 -1.496,-2 -2.996,-4 -4.496,-6.25 -6.996,-7.75 -14.246,-15.75 -22.242,-22.49 -3.75,-2.5 -7.496,-5 -11.246,-7.5 -10.496,0 -22.742,3.5 -32.989,6 -14.996,14.24 -30.238,28.24 -37.238,47.73 -3.25,3.25 -2.246,15 -2.246,19.5 1.496,5.5 3.246,10.99 4.996,16.49 0,0.75 0,1.25 0,1.75 -3.75,2.75 -7.5,5.5 -10.996,8 -5.996,6.24 -11.996,12.24 -17.746,18.24 -3.246,-0.25 -6.246,-0.5 -9.246,-1 -1,2 4.75,8.75 6,10.5 4.746,1.75 9.496,3.5 14.492,5.25 1,1.5 0.75,9 -0.75,10.5 0,1.99 0,3.74 0,5.49 2.5,2.75 5,5.5 7.5,8.25 3.746,-2.5 6.996,-6.75 10.996,-9.25 1,0 2.246,0 3.496,-0.25 0,8 14.746,17.74 21.746,17.74 9.246,-3.99 13.993,-10.24 16.743,-19.74 0,-7.99 -0.75,-14.74 -5,-21.49 -5.747,-5.75 -14.493,-9 -22.239,-11.25 2.246,-0.5 4.496,-1 6.746,-1.5 5.25,0.25 10.496,0.25 15.996,0.25 12.993,2.75 25.989,7.75 38.485,11.75 4,1 8.25,1.75 12.496,2.5 7.496,0 15.246,0.25 22.492,-1.75 7.496,-5.25 14.996,-10.75 22.742,-16.25 2.25,-0.74 4.5,-1.5 7,-2.49 1.75,0 3.496,0 5.496,0 2.5,1.24 5,2.49 7.75,3.49 7.246,9.25 19.493,15.25 30.243,18.75 3.25,0 6.74,0 10.24,0 25.49,-3.5 53.23,-21 78.97,-13.75 -3.49,1.25 -6.99,2.25 -10.24,3.25 -11.75,7 -23.49,17.5 -19.74,32.74 2.99,6.75 7.49,11.5 12.74,16.49 0.5,0.5 1,1.01 1.75,1.25 1.75,0 3.5,0 5.5,0 10.24,-2.5 15.24,-7.74 19.74,-16.99 4.5,2.25 9.5,4.75 12.5,9 3.75,0 6.74,-5.75 8.5,-8.25 0,-5 0,-10.25 -0.75,-15.24 6.24,-2 13.74,-3.75 18.49,-8.5 0.75,-2.5 1.75,-5 2.75,-7.5 -3.75,-0.25 -7.5,-0.5 -11.25,-1 -9.5,-8.25 -18.99,-16.49 -28.24,-24.99 6.5,-9.99 9.5,-28.49 5,-39.49 -2.5,-4.25 -5,-8.75 -7.5,-13.24 -4,-5.25 -8,-10.5 -11.74,-15.75 -6.5,-6.25 -13,-12.74 -19.25,-19.24 -7.99,-4 -23.24,-6 -31.99,-4.75 -18.99,11.74 -37.73,30.49 -47.73,50.73 -0.25,0.25 -0.5,0.25 -0.75,0.25 -0.5,-0.49 -1,-1 -1.25,-1.5 -0.25,-8.24 -0.25,-16.49 -0.25,-24.99 2,-16.99 5.5,-34.48 11.75,-50.23 -5.75,2.75 -11.5,18.99 -14.25,24.99 -0.997,3.25 -1.997,6.5 -2.75,9.5 -1.247,4.99 -2.497,9.99 -3.747,14.99 -3,18 -3,36.24 -2.25,54.49 1.5,11.24 9.25,22.74 20.497,25.49 4.5,-6.75 10,-8.75 17.49,-11.25 1.5,0 3,0 4.5,-0.25 12.25,2.25 26.49,3.25 38.74,1.25 0,0.25 0,0.5 0,0.75 -17.5,11.99 -39.74,26.49 -61.73,18.24 -10.247,-4.5 -19.497,-12.24 -28.493,-18.74 -13.746,-4.5 -26.742,9 -36.488,16.24 -1.25,0.75 -2.5,1.25 -3.75,1.75 -9.246,2 -18.492,2.5 -27.738,0 -14.746,-4.75 -26.492,-12.49 -39.488,-21.24 6,1.25 12.246,2.25 18.496,3.25 4.496,0 9.246,0 13.992,-0.25 7.75,-1.25 16.746,-2.25 24.242,0.25 3.25,2.75 6,5.75 8.5,9.25 7.496,0 13.242,-6.25 17.242,-11.75 7.746,-16.99 5.75,-40.24 3.25,-58.23 -3.75,-20 -8.246,-44.23 -21.246,-60.48 z m 173.191,123.46 c -1,1 -5,4.25 -5,5.75 4.75,0.75 9.75,1.49 14.75,2.25 -2.75,-2.5 -6.75,-6.5 -9.75,-8 z m -272.406,-0.5 c -3,2 -5.996,3.75 -8.746,5.5 0,0.25 0,0.5 0,0.75 5.746,0.5 11.496,0.75 17.496,1 -3.5,-1.75 -5.5,-6.25 -8.75,-7.25 z m 94.969,-87.47 c -3.5,2 -3.75,2.74 -3.75,6.74 0.75,1.25 1.75,2.5 2.75,3.75 1.5,0 3,0 4.75,0 3.246,-2.75 3.496,-7.49 0,-9.74 -1.25,-0.25 -2.5,-0.5 -3.75,-0.75 z m 82.477,0 c -1.75,1.24 -3.5,2.25 -5,3.25 0,5.24 0.75,7.49 6.75,7.49 3.74,-2.75 4.99,-5.75 1.5,-9.99 -1.25,-0.25 -2.26,-0.5 -3.25,-0.75 z m -325.645,50.73 c -1.25,2.75 -2.75,5.5 -3.25,8.5 0,4.5 0,8.75 0.25,12.99 2.5,5.5 5.25,11 7.996,16.5 3,4.5 6,8.99 9.246,13.24 2.75,3 5.5,5.75 8.5,8.5 12.746,8.75 26.742,15.75 42.985,15.75 -1.5,-3 -6.497,-4.75 -8.747,-7.75 -8.996,-7.5 -17.742,-16.25 -25.742,-24.24 -5,-6 -9.996,-12.25 -14.742,-18.5 -5.25,-7.99 -10.25,-16.24 -15.246,-24.49 -0.5,0 -1,-0.25 -1.25,-0.5 z m 73.223,1 c 1.5,13 3,25.99 4.5,38.99 5.25,3 9.75,8 13.996,12.24 4.496,-4.5 4.75,-15.99 5.25,-22.49 -3.25,-3.25 -6.5,-6.5 -9.746,-9.99 -4.5,-6 -8.75,-12.25 -13,-18.5 -0.496,0 -0.75,0 -1,-0.25 z m 419.862,2.5 c -6,10.5 -14,20.25 -22.24,28.99 0,7.75 2.49,14.49 4.99,21.74 3.75,-1.75 7.75,-6.5 11,-9.24 1.75,-1 4,-2 4.75,-3.75 0.75,-12.5 1.5,-24.99 2.5,-37.74 -0.5,0 -0.75,0 -1,0 z m 74.97,1.5 c -11.24,19.99 -24.99,38.24 -41.23,54.48 -6.75,5.75 -14.5,13.5 -22.24,17.75 -0.25,0.5 -0.51,1 -0.51,1.5 2.01,0.49 4,0.74 6,1 8.5,-0.51 14.5,-2.25 22,-6 8.99,-5.25 16.99,-13.5 24.49,-21 5.5,-8.99 13.99,-19.24 15.24,-29.99 0,-5.49 -1.75,-12.49 -2.75,-17.74 -0.5,0 -0.75,0 -1,0 z m -519.821,2.5 c -2.5,1.25 -5,2.5 -6.496,5 0,5.75 -0.504,9.24 5.246,11.25 7.496,0 9.996,-2.75 9.746,-10.25 -1,-1.25 -2,-2.75 -3,-4.25 -2,-0.5 -3.746,-1 -5.496,-1.75 z m 472.091,3.5 c -5.5,0 -8.25,8 -6.25,12.24 5.25,5.25 10.5,5 14.5,-1.24 0,-5 0.25,-6.5 -3,-9.75 -1.75,-0.25 -3.5,-0.75 -5.25,-1.25 z m -329.637,49.98 c -5.25,2.5 -6.5,5.75 -2.75,11 3.746,1.75 7.996,1.5 9.996,-2.5 0,-6.25 -1.5,-7.75 -7.246,-8.5 z m 184.687,0.75 c -5,2 -4,3.25 -4.75,7.75 3.25,5.5 6.5,7 11.25,2.25 0.25,-0.75 0.5,-1.5 1,-2.25 -0.75,-5.75 -2.25,-7 -7.5,-7.75 z m -104.215,3 c -11.25,3.25 -21.492,9.5 -30.242,17.24 -6.496,6.75 -13.746,14.5 -16.742,23.5 6.746,0 14.746,-5 20.492,-8 -4,11.49 -8,22.49 -8,34.74 0.25,0 0.5,0 0.754,0 0.25,-0.75 0.746,-1.75 1.246,-2.75 8.25,-11.5 19.246,-21.75 26.742,-33.74 4.25,-9.75 6.496,-20.24 8.25,-30.74 -1.004,0 -1.754,0 -2.5,-0.25 z m 24.488,0 c 0,18.25 8.75,32.74 18.997,46.98 5.25,6.25 10.5,12.5 15.74,18.75 0.25,0 0.75,0 1.26,0 -1.75,-6 -3.25,-12 -4.75,-18.25 -1.5,-4.25 -3,-8.5 -4.5,-12.74 6.25,2 15.99,7.99 22.49,7.99 -11,-18.49 -26.74,-38.23 -49.237,-42.73 z m -202.679,2 c -4.75,3 -9.246,5.75 -13.746,8.5 0,0.5 0,0.75 0,1 4.25,2 20.742,6.99 23.742,1 -2.75,-2.75 -6.75,-9 -9.996,-10.5 z m 382.616,3.75 c -1.75,1.75 -10.24,8.74 -10.24,10.75 5.99,1.5 21.24,2.24 24.99,-3.26 -4.75,-2.49 -10,-5.99 -14.75,-7.49 z m -330.136,36.98 c -0.25,0.75 -0.496,1.5 -0.496,2 4.996,11.5 11.996,16 23.738,20.25 3.75,1 7.5,1.75 11.25,2.5 -6.5,-13 -20.496,-22.5 -34.492,-24.75 z m 276.156,1.75 c -5.75,1 -11.5,2.5 -16.74,4.75 -2.5,1.5 -20.74,15.75 -16.99,19.5 13.74,-1 22.23,-5.5 31.48,-15.5 1,-2.75 2.25,-5.5 3.5,-8.25 -0.5,0 -1,-0.25 -1.25,-0.5 z m -224.921,12 c -1.5,1.5 -4.746,2.25 -6.75,2.25 0,2.5 1.75,8.75 5.75,6.75 1.25,-3 2.75,-6 4.25,-9 -1.25,0 -2.25,0 -3.25,0 z m 173.691,0.5 c 0.25,3.25 0.75,6.5 1.25,9.5 1.25,0 2.5,0 3.75,0 2.25,-2 3,-3.25 3.75,-5.75 -3,-1.25 -6,-2.5 -8.75,-3.75 z m -29.24,4.25 c -0.25,1.5 -0.5,3 -0.5,4.25 0.25,7.75 0.5,15.49 1,22.99 2.5,7.25 5,14.49 7.74,21.74 1.5,6.25 3,12.5 4.76,18.5 0.25,0 0.49,0 0.74,0 3.5,-21.5 2.5,-51.24 -13.74,-67.48 z m -114.963,1.25 c -7.996,9.25 -12.496,18.24 -15.492,29.99 -0.5,3.5 -1,6.74 -1.25,9.99 0,4.5 0,9 0,13.5 0.75,5.5 1.5,10.75 2.25,16 0.25,-0.25 0.746,-0.51 1.246,-1 2.5,-14.75 6.5,-30 12.5,-43.74 0.496,-8.25 1.25,-16.49 1.996,-24.74 -0.496,0 -1,0 -1.25,0 z m 68.73,0.25 c 0,10.25 4.996,17.49 9.496,26.24 -5.75,-0.25 -11.496,-0.5 -16.996,-1 -7.496,0 -15.496,0 -22.992,0.75 3.5,-8 7.246,-15.74 9.25,-24.24 -14,5.5 -23.246,16.99 -30.492,29.49 -9.496,6.74 -16.746,16.24 -20.492,27.24 0,0.5 0,1 0.25,1.5 5.25,-3 9.746,-8 14.242,-12.25 7.5,-4.75 15.246,-8 23.492,-11.25 5.25,-1 10.746,-1.99 16.246,-3.24 5.746,0 11.496,0 17.246,0 4.496,1.25 9.246,2.24 13.993,3.24 4.5,2.25 9,4.5 13.5,6.5 5.25,4.5 10.49,9 15.74,13.25 2.25,1.25 5.5,4.75 8.5,3.75 -3.75,-13.25 -16.25,-23.5 -24.99,-33.74 -1.5,-3 -3,-6 -4.5,-9 -3.5,-3.25 -7,-6.74 -10.247,-10.24 -3.75,-2.25 -7.5,-4.5 -11.246,-7 z m -29.992,43.48 c -10.746,1.5 -18.992,8.5 -26.492,16 -2.75,3.75 -5.246,7.25 -7.746,10.74 -8.496,15.25 -16.496,31.49 -17.746,49.24 -1.75,2 -3.496,4 -5.246,6 -0.25,9.24 -0.25,18.49 -0.25,27.49 -4.746,11.49 -8.996,24.49 -4.25,36.73 0.25,0 0.5,0 1.004,0 0.996,-5.99 8.492,-15.24 11.492,-20.24 2.5,-2.5 5,-5.25 7.5,-8 -0.75,-4.49 -6.25,-8.74 -6.25,-13.99 2.5,0.5 5,1 7.5,1.25 2.5,-5.75 4.996,-11.75 7.496,-17.75 -2.5,0 -4.75,0 -7,-0.25 5.25,-7.49 7.75,-16.99 16.246,-21.99 3.25,3.25 8.5,4.75 13.246,4 1,-2 2,-4.25 3,-6.5 -7.746,0 -8.996,-8 -11.996,-13.75 -3.25,-3.99 -6.75,-4.74 -3.25,-9.49 5,-3.25 10.746,-4.75 16.242,-6.25 1.5,-3 3,-5.99 4.5,-8.99 1.25,-4.25 2.5,-8.5 3.75,-13 4.5,0 14.492,5.75 14.492,-2.25 -0.746,-0.75 -1.5,-1.5 -1.996,-2.5 -4.5,-3.25 -9,-5.25 -14.246,-6.5 z m 24.242,1.25 c -1.75,0 -3.75,5.25 -4.25,6.5 0,2.5 1.004,4.25 3.75,4.25 6.5,-6.5 15.243,0.25 21.993,3 4,9 8.5,17.49 13.5,25.99 6.49,9 13.24,17.99 19.99,26.99 0.5,6 1,12 1.5,17.99 0.25,1.76 0.5,3.5 1,5 -1.25,1 -4.25,4.75 -6,4 -3.5,-4.25 -6.75,-8.49 -10,-12.74 1.5,-3 3,-6.25 4.75,-9.5 -1.75,-3.75 -3.5,-7.5 -5,-11.25 -3.75,0 -8.99,5.25 -12.24,7.25 -3.25,1 -5.5,0.25 -8.5,0.25 0,3.75 1.25,6.5 -1.25,10 -1.247,3.99 -5.247,12.49 -0.5,15.24 1.75,0.25 3.5,0.25 5.25,0.25 6.75,0 13.49,2.75 19.75,5.75 2.24,1.75 4.49,3.25 6.99,4.75 5.75,0 11.25,-1 14.25,-7 -0.51,-11 -0.76,-22.24 -1,-33.49 -8,-11.75 -16,-23.74 -23.75,-35.73 -2.75,-5.75 -5.24,-11.5 -7.74,-17.25 -1.75,-1 -3.5,-2 -5.25,-3.25 -3.75,-1.25 -7.497,-2.75 -11.25,-4.25 -5.497,-0.75 -10.747,-1.75 -15.993,-2.75 z m -9.996,18.25 c -3.25,0.75 -6.746,1.25 -9.746,2.75 -1.75,1.49 -3.5,2.74 -5.25,3.99 -2,3.75 -3,7.5 -3.996,11.5 5.746,0 10.496,-5.25 15.242,-8 3.5,-0.25 6.996,-0.75 10.746,-1.25 8.246,1 15.746,4.25 22.496,8.75 1.5,1.25 4.247,4.5 6.247,4.5 0,-1 0,-2.25 0.25,-3.5 -2.5,-10.5 -23.243,-12.49 -32.239,-13.25 0,-0.24 0,-0.49 0,-0.99 2.496,-0.75 4.996,-1.5 7.496,-2.5 0,-0.25 0,-0.75 0.25,-1.25 -4,-0.25 -7.746,-0.5 -11.496,-0.75 z m 2.5,13.24 c -3.75,1 -7.5,3.25 -10.746,5 -0.25,0.5 -0.25,0.75 -0.25,1 5.746,0.75 11.492,1.25 17.242,1.75 6.496,2.5 13.996,7.24 21.243,7.24 0,-2.99 -8.247,-9.24 -10.997,-10.99 -2.25,-0.75 -4.246,-1.5 -6.246,-2.5 -3.5,-0.5 -7,-1 -10.246,-1.5 z m -9.75,11.25 c -2.246,0.5 -4.246,1 -6.246,1.25 0,3.99 9.996,4.24 12.996,4.49 3.496,3.5 6.496,7.75 10.746,9.75 2.25,-2.75 4.996,-5.75 6,-9.24 -3,-1.26 -5.75,-2.51 -8.5,-3.76 -4.996,-0.74 -9.996,-1.49 -14.996,-2.49 z m 21.242,18.49 c -3.496,2.75 -8.246,6.5 -7.242,11.5 2.746,0 4.246,-0.5 6.496,-1.75 0.5,-2.5 2.5,-8 0.746,-9.75 z m -19.992,0.25 c 1.5,3.75 2.5,5.75 6.25,7.5 1,-2.25 2,-4.5 2.996,-7 -3.246,0 -6.246,-0.25 -9.246,-0.5 z m -6.246,2.5 c -4,5.75 -4.25,7.5 -1.75,13.75 2.75,2.75 5.5,6.49 8.5,2 0,-4.5 -3,-14 -6.75,-15.75 z m 33.488,3.75 c -2.5,3.25 -5.246,7 -8.746,8.75 -2.75,-0.25 -5.25,-0.5 -7.75,-0.75 -4.25,2.75 1.25,9.5 2.75,11.74 -0.746,8.25 -1.996,17.25 0,25.5 1.75,0.5 3.75,-0.25 5,-1.5 3.25,-10.75 2.746,-23 8.246,-32.99 1,-3.25 2.5,-6.5 2.5,-9.75 -0.75,-0.25 -1.5,-0.5 -2,-1 z m -99.718,5 c -2.246,1.75 -4.246,3.25 -6.246,4.75 -1.25,2 -2.246,3.99 -3.25,5.74 -0.496,3 -1,6 -1.25,9 0.504,5.5 1.25,13.25 4.25,17.75 0.25,0 0.75,0 1.25,-0.25 0,-5.25 3.25,-12 4.996,-16.75 -0.246,-3.5 -0.496,-7 -0.496,-10.49 0.496,-3 1.25,-6 1.996,-9.25 -0.496,0 -0.996,-0.25 -1.25,-0.5 z m 162.945,6 c 0,8.99 0.25,17.74 0.5,26.49 0.75,2.75 1.5,5.25 2.25,7.75 0.25,0 0.75,0 1.25,0 1.25,-1.75 2.5,-3.5 3.75,-5.25 0.75,-4.75 0.5,-9.75 0,-14.5 -2.25,-4.75 -4.5,-9.49 -6.5,-14.24 -0.5,0 -1,0 -1.25,-0.25 z m -114.461,2.5 c -6.746,0 -15.992,11.24 -14.492,17.74 0.996,0.25 2.246,0.5 3.496,0.5 4.25,-1.25 8.25,-4 12.246,-5.5 2.25,0 4.5,0 6.75,-0.25 1.75,0.5 3.746,1 5.746,1.5 9.996,6 4.75,-5.25 3.5,-9.99 -3.5,-1.75 -6.5,-3 -10.246,-3.76 -2.5,0 -4.75,0 -7,-0.24 z m 8.996,16.49 c -2.746,1.25 -5.246,2.5 -7.746,3.5 -1.996,2.75 -3.996,5.5 -5.996,8 -3,0 -5.25,-0.5 -8.246,-1.5 -4.25,0.25 -8.25,0.5 -12.246,0.5 0,0.25 0,0.5 0,0.75 9.496,7 17.742,10.24 29.488,11.74 7.746,0 17.746,0.75 21.492,-7 -2,-0.49 -3.25,-1.74 -4.75,-3.24 -1.996,-6.25 -4.996,-11.25 -11.996,-12.75 z m 52.485,0.5 c -3.75,2.5 -5.5,6.5 -6.247,10.75 0,1.25 -6,1.25 -7,1.25 0,4 3.5,5.99 6,8.5 1.997,0.49 4,0.99 5.997,1.25 3.5,0 7.25,0 11,0 7.25,-1.5 12.5,-3.76 18.74,-7.25 0,-0.5 0,-1 0,-1.5 -1.75,-1.75 -8.99,-1.5 -11.99,-1.5 -2.25,-4.5 -5.25,-9.5 -10.25,-11 -2.25,0 -4.25,-0.25 -6.25,-0.5 z m 44.23,6.25 c -1.99,2.25 -4,4.25 -5.74,6.25 0,4.49 3.24,13.74 8.74,13.74 -0.5,-6.5 -1,-13.24 -1.25,-19.99 -0.75,0 -1.25,0 -1.75,0 z m -9.24,19.24 c -8,1.5 -16.25,2.25 -24.24,2.75 -2.5,6.25 1.75,8.25 6,11 0,6.99 -3.25,7.99 -9.5,5.49 -3.5,-2.74 -9.5,-8.49 -14,-8.49 -0.247,3.25 -0.497,6.49 -0.497,9.49 7.247,5.25 16.247,6.5 24.997,8.25 3.99,-2 6.74,-9.25 12.49,-9.25 3,2.75 8.25,10 12.49,10 2.75,-3.75 4.5,-7 5.5,-11.74 0,-2.25 0,-4.75 0.25,-7.25 -3,0 -8.74,-7.75 -10.74,-9.75 -1,0 -2,-0.25 -2.75,-0.5 z m -92.471,2 c -4.746,2.75 -9.246,5.5 -13.746,8.25 0,0.75 0,1.25 0,1.75 7.996,1.5 15.996,5.24 22.496,-1.25 0.746,-2 1.746,-4 1.746,-6.25 -3.496,-0.75 -6.996,-1.5 -10.496,-2.5 z m -28.242,11.75 c -4.496,2.5 -8.496,6.99 -10.746,11.49 13.496,5.5 27.492,8 42.238,7.25 4,-2.5 9.746,-4.75 10.996,-9.75 -4,0 -8,0 -11.746,0 -10.496,-2 -20.492,-6.49 -30.742,-8.99 z m 15.746,32.74 c -2.5,7.5 -0.75,11.24 3.5,17.24 3.75,-3 9.996,-9 11.496,-13.5 -5,-1.25 -9.996,-2.49 -14.996,-3.74 z m 44.234,17.99 c -11.242,4.5 -17.242,11.24 -24.992,20.49 -1.246,0.75 -2.496,1.5 -3.496,2 -2,0.25 -4,0.5 -6,0.5 -7.246,-1.75 -13.992,-6.25 -20.992,-7.5 -2.25,0 -4.5,0 -6.746,0 -7.746,9.75 14.746,21.25 19.992,24.5 5.25,2.24 10.746,4.5 16.246,6.74 3.996,1 7.996,1.76 11.996,2.5 17.992,1.25 34.738,-0.5 50.985,-8.49 14.24,-8.5 27.99,-17.75 32.24,-34.99 -5,-1.5 -12.25,-4.5 -17.5,-2.75 -14.49,14.49 -35.487,-1 -51.733,-3" /></g></g></svg>